<svg xmlns="http://www.w3.org/2000/svg" viewBox="0 0 64 64" id="calendar"><path fill="#2b2e63" d="M57.12 6.95h-3.1V4.38c0-2.42-1.96-4.38-4.38-4.38-2.41 0-4.38 1.96-4.38 4.38v2.57H18.74V4.38c0-2.42-1.97-4.38-4.38-4.38-2.42 0-4.38 1.96-4.38 4.38v2.57h-3.1C3.53 6.95.8 9.68.8 13.04v44.87C.8 61.27 3.53 64 6.88 64h50.24c3.35 0 6.08-2.73 6.08-6.09V13.04c0-3.36-2.73-6.09-6.08-6.09zm-8.99-2.57c0-.84.68-1.52 1.51-1.52.84 0 1.52.68 1.52 1.52v8.02a1.515 1.515 0 0 1-3.03 0V4.38zm-35.29 0c0-.84.68-1.52 1.52-1.52.83 0 1.51.68 1.51 1.52v8.02a1.515 1.515 0 0 1-3.03 0V4.38zm47.5 53.53c0 1.78-1.45 3.22-3.22 3.22H6.88c-1.77 0-3.22-1.44-3.22-3.22V23.23h56.68v34.68zm0-37.55H3.66v-7.32c0-1.78 1.45-3.22 3.22-3.22h3.1v2.58c0 2.41 1.96 4.38 4.38 4.38 2.41 0 4.38-1.97 4.38-4.38V9.82h26.52v2.58c0 2.41 1.97 4.38 4.38 4.38 2.42 0 4.38-1.97 4.38-4.38V9.82h3.1c1.77 0 3.22 1.44 3.22 3.22v7.32z"></path><path fill="#f16150" d="M15.87 4.38v8.02a1.515 1.515 0 0 1-3.03 0V4.38c0-.84.68-1.52 1.52-1.52.83 0 1.51.68 1.51 1.52zm35.29 0v8.02a1.515 1.515 0 0 1-3.03 0V4.38c0-.84.68-1.52 1.51-1.52.84 0 1.52.68 1.52 1.52z"></path><path fill="#e0c28b" d="M60.34 13.04v7.32H3.66v-7.32c0-1.78 1.45-3.22 3.22-3.22h3.1v2.58c0 2.41 1.96 4.38 4.38 4.38 2.41 0 4.38-1.97 4.38-4.38V9.82h26.52v2.58c0 2.41 1.97 4.38 4.38 4.38 2.42 0 4.38-1.97 4.38-4.38V9.82h3.1c1.77 0 3.22 1.44 3.22 3.22z"></path><path fill="#ededed" d="M3.66 23.23v34.68c0 1.78 1.45 3.22 3.22 3.22h50.24c1.77 0 3.22-1.44 3.22-3.22V23.23H3.66zm12.95 34.52c0 .79-.64 1.43-1.43 1.43H8.57c-.79 0-1.43-.64-1.43-1.43v-6.61c0-.79.64-1.43 1.43-1.43h6.61c.79 0 1.43.64 1.43 1.43v6.61zm0-12.27c0 .79-.64 1.44-1.43 1.44H8.57c-.79 0-1.43-.65-1.43-1.44v-6.6c0-.79.64-1.43 1.43-1.43h6.61c.79 0 1.43.64 1.43 1.43v6.6zm13.42 12.27c0 .79-.65 1.43-1.44 1.43h-6.6c-.79 0-1.43-.64-1.43-1.43v-6.61c0-.79.64-1.43 1.43-1.43h6.6c.79 0 1.44.64 1.44 1.43v6.61zm0-12.27c0 .79-.65 1.44-1.44 1.44h-6.6c-.79 0-1.43-.65-1.43-1.44v-6.6c0-.79.64-1.43 1.43-1.43h6.6c.79 0 1.44.64 1.44 1.43v6.6zm13.41 12.27c0 .79-.64 1.43-1.43 1.43h-6.6c-.79 0-1.44-.64-1.44-1.43v-6.61c0-.79.65-1.43 1.44-1.43h6.6c.79 0 1.43.64 1.43 1.43v6.61zm0-12.27c0 .79-.64 1.44-1.43 1.44h-6.6c-.79 0-1.44-.65-1.44-1.44v-6.6c0-.79.65-1.43 1.44-1.43h6.6c.79 0 1.43.64 1.43 1.43v6.6zm0-12.26c0 .79-.64 1.43-1.43 1.43h-6.6c-.79 0-1.44-.64-1.44-1.43v-6.61c0-.79.65-1.43 1.44-1.43h6.6c.79 0 1.43.64 1.43 1.43v6.61zm13.42 12.26c0 .79-.64 1.44-1.43 1.44h-6.61c-.79 0-1.43-.65-1.43-1.44v-6.6c0-.79.64-1.43 1.43-1.43h6.61c.79 0 1.43.64 1.43 1.43v6.6zm0-12.26c0 .79-.64 1.43-1.43 1.43h-6.61c-.79 0-1.43-.64-1.43-1.43v-6.61c0-.79.64-1.43 1.43-1.43h6.61c.79 0 1.43.64 1.43 1.43v6.61z"></path><path fill="#2b2e63" d="M42.01 25.18h-6.6c-.79 0-1.44.64-1.44 1.43v6.61c0 .79.65 1.43 1.44 1.43h6.6c.79 0 1.43-.64 1.43-1.43v-6.61c0-.79-.64-1.43-1.43-1.43zm-1.43 6.61h-3.74v-3.74h3.74v3.74z"></path><path fill="#ffdc7c" d="M36.84 28.05h3.74v3.74h-3.74z"></path><path fill="#2b2e63" d="M55.43 25.18h-6.61c-.79 0-1.43.64-1.43 1.43v6.61c0 .79.64 1.43 1.43 1.43h6.61c.79 0 1.43-.64 1.43-1.43v-6.61c0-.79-.64-1.43-1.43-1.43zm-1.44 6.61h-3.73v-3.74h3.73v3.74z"></path><path fill="#ffdc7c" d="M50.26 28.05h3.73v3.74h-3.73z"></path><path fill="#2b2e63" d="M15.18 37.45H8.57c-.79 0-1.43.64-1.43 1.43v6.6c0 .79.64 1.44 1.43 1.44h6.61c.79 0 1.43-.65 1.43-1.44v-6.6c0-.79-.64-1.43-1.43-1.43zm-1.44 6.6H10v-3.74h3.74v3.74z"></path><path fill="#ffdc7c" d="M10 40.31h3.74v3.74H10z"></path><path fill="#2b2e63" d="M28.59 37.45h-6.6c-.79 0-1.43.64-1.43 1.43v6.6c0 .79.64 1.44 1.43 1.44h6.6c.79 0 1.44-.65 1.44-1.44v-6.6c0-.79-.65-1.43-1.44-1.43zm-1.43 6.6h-3.74v-3.74h3.74v3.74z"></path><path fill="#ffdc7c" d="M23.42 40.31h3.74v3.74h-3.74z"></path><path fill="#2b2e63" d="M42.01 37.45h-6.6c-.79 0-1.44.64-1.44 1.43v6.6c0 .79.65 1.44 1.44 1.44h6.6c.79 0 1.43-.65 1.43-1.44v-6.6c0-.79-.64-1.43-1.43-1.43zm-1.43 6.6h-3.74v-3.74h3.74v3.74z"></path><path fill="#ffdc7c" d="M36.84 40.31h3.74v3.74h-3.74z"></path><path fill="#2b2e63" d="M55.43 37.45h-6.61c-.79 0-1.43.64-1.43 1.43v6.6c0 .79.64 1.44 1.43 1.44h6.61c.79 0 1.43-.65 1.43-1.44v-6.6c0-.79-.64-1.43-1.43-1.43zm-1.44 6.6h-3.73v-3.74h3.73v3.74z"></path><path fill="#ffdc7c" d="M50.26 40.31h3.73v3.74h-3.73z"></path><path fill="#2b2e63" d="M15.18 49.71H8.57c-.79 0-1.43.64-1.43 1.43v6.61c0 .79.64 1.43 1.43 1.43h6.61c.79 0 1.43-.64 1.43-1.43v-6.61c0-.79-.64-1.43-1.43-1.43zm-1.44 6.6H10v-3.73h3.74v3.73z"></path><path fill="#ffdc7c" d="M10 52.58h3.74v3.73H10z"></path><path fill="#2b2e63" d="M28.59 49.71h-6.6c-.79 0-1.43.64-1.43 1.43v6.61c0 .79.64 1.43 1.43 1.43h6.6c.79 0 1.44-.64 1.44-1.43v-6.61c0-.79-.65-1.43-1.44-1.43zm-1.43 6.6h-3.74v-3.73h3.74v3.73z"></path><path fill="#ffdc7c" d="M23.42 52.58h3.74v3.73h-3.74z"></path><path fill="#2b2e63" d="M42.01 49.71h-6.6c-.79 0-1.44.64-1.44 1.43v6.61c0 .79.65 1.43 1.44 1.43h6.6c.79 0 1.43-.64 1.43-1.43v-6.61c0-.79-.64-1.43-1.43-1.43zm-1.43 6.6h-3.74v-3.73h3.74v3.73z"></path><path fill="#ffdc7c" d="M36.84 52.58h3.74v3.73h-3.74z"></path></svg>