<svg height="512" viewBox="0 0 64 64" width="512" xmlns="http://www.w3.org/2000/svg"><path d="m5 10v48a1 1 0 0 0 1 1h49a1 1 0 0 0 1-1v-48a1 1 0 0 0 -1-1h-49a1 1 0 0 0 -1 1z" fill="#c2c2c2"/><path d="m55 59.5h-49a1.5 1.5 0 0 1 -1.5-1.5v-48a1.5 1.5 0 0 1 1.5-1.5h49a1.5 1.5 0 0 1 1.5 1.5v48a1.5 1.5 0 0 1 -1.5 1.5zm-49-50a.5.5 0 0 0 -.5.5v48a.5.5 0 0 0 .5.5h49a.5.5 0 0 0 .5-.5v-48a.5.5 0 0 0 -.5-.5z" fill="#212a41"/><path d="m8 17h51a0 0 0 0 1 0 0v41a1 1 0 0 1 -1 1h-49a1 1 0 0 1 -1-1v-41a0 0 0 0 1 0 0z" fill="#e0e0e0"/><path d="m58 59.5h-49a1.5 1.5 0 0 1 -1.5-1.5v-41a.5.5 0 0 1 .5-.5h51a.5.5 0 0 1 .5.5v41a1.5 1.5 0 0 1 -1.5 1.5zm-49.5-42v40.5a.5.5 0 0 0 .5.5h49a.5.5 0 0 0 .5-.5v-40.5z" fill="#212a41"/><path d="m10 57.5a.5.5 0 0 1 -.5-.5v-38a.5.5 0 0 1 1 0v38a.5.5 0 0 1 -.5.5z" fill="#fefefe"/><path d="m57 57.5a.5.5 0 0 1 -.5-.5v-38a.5.5 0 0 1 1 0v38a.5.5 0 0 1 -.5.5z" fill="#c2c2c2"/><path d="m56 17h-51v-7a1 1 0 0 1 1-1h49a1 1 0 0 1 1 1z" fill="#b51040"/><path d="m56 17.5h-51a.5.5 0 0 1 -.5-.5v-7a1.5 1.5 0 0 1 1.5-1.5h49a1.5 1.5 0 0 1 1.5 1.5v7a.5.5 0 0 1 -.5.5zm-50.5-1h50v-6.5a.5.5 0 0 0 -.5-.5h-49a.5.5 0 0 0 -.5.5z" fill="#212a41"/><path d="m59 17h-51v-7a1 1 0 0 1 1-1h49a1 1 0 0 1 1 1z" fill="#d32e5e"/><path d="m59 17.5h-51a.5.5 0 0 1 -.5-.5v-7a1.5 1.5 0 0 1 1.5-1.5h49a1.5 1.5 0 0 1 1.5 1.5v7a.5.5 0 0 1 -.5.5zm-50.5-1h50v-6.5a.5.5 0 0 0 -.5-.5h-49a.5.5 0 0 0 -.5.5z" fill="#212a41"/><path d="m57 15.5a.5.5 0 0 1 -.5-.5v-4a.5.5 0 0 1 1 0v4a.5.5 0 0 1 -.5.5z" fill="#b51040"/><path d="m10 15.5a.5.5 0 0 1 -.5-.5v-4a.5.5 0 0 1 1 0v4a.5.5 0 0 1 -.5.5z" fill="#f14c7c"/><rect fill="#e0e0e0" height="8" rx="1" width="3" x="17" y="5"/><path d="m19 13.5h-1a1.5 1.5 0 0 1 -1.5-1.5v-6a1.5 1.5 0 0 1 1.5-1.5h1a1.5 1.5 0 0 1 1.5 1.5v6a1.5 1.5 0 0 1 -1.5 1.5zm-1-8a.5.5 0 0 0 -.5.5v6a.5.5 0 0 0 .5.5h1a.5.5 0 0 0 .5-.5v-6a.5.5 0 0 0 -.5-.5z" fill="#212a41"/><rect fill="#e0e0e0" height="8" rx="1" width="3" x="47" y="5"/><path d="m49 13.5h-1a1.5 1.5 0 0 1 -1.5-1.5v-6a1.5 1.5 0 0 1 1.5-1.5h1a1.5 1.5 0 0 1 1.5 1.5v6a1.5 1.5 0 0 1 -1.5 1.5zm-1-8a.5.5 0 0 0 -.5.5v6a.5.5 0 0 0 .5.5h1a.5.5 0 0 0 .5-.5v-6a.5.5 0 0 0 -.5-.5z" fill="#212a41"/><circle cx="21" cy="26" fill="#e0c8a4" r="4"/><path d="m21 30.5a4.5 4.5 0 1 1 4.5-4.5 4.505 4.505 0 0 1 -4.5 4.5zm0-8a3.5 3.5 0 1 0 3.5 3.5 3.5 3.5 0 0 0 -3.5-3.5z" fill="#212a41"/><path d="m18 30h6a4 4 0 0 1 4 4v4a0 0 0 0 1 0 0h-14a0 0 0 0 1 0 0v-4a4 4 0 0 1 4-4z" fill="#0079a8"/><path d="m28 38.5h-14a.5.5 0 0 1 -.5-.5v-4a4.505 4.505 0 0 1 4.5-4.5h6a4.505 4.505 0 0 1 4.5 4.5v4a.5.5 0 0 1 -.5.5zm-13.5-1h13v-3.5a3.5 3.5 0 0 0 -3.5-3.5h-6a3.5 3.5 0 0 0 -3.5 3.5z" fill="#212a41"/><path d="m16 36.5a.5.5 0 0 1 -.5-.5v-2a2.5 2.5 0 0 1 2.5-2.5.5.5 0 0 1 0 1 1.5 1.5 0 0 0 -1.5 1.5v2a.5.5 0 0 1 -.5.5z" fill="#1e97c6"/><path d="m26 36.5a.5.5 0 0 1 -.5-.5v-2a1.5 1.5 0 0 0 -1.5-1.5.5.5 0 0 1 0-1 2.5 2.5 0 0 1 2.5 2.5v2a.5.5 0 0 1 -.5.5z" fill="#005b8a"/><path d="m21 36-2-6h4z" fill="#e0e0e0"/><path d="m21 36.5a.5.5 0 0 1 -.475-.342l-2-6a.5.5 0 0 1 .475-.658h4a.5.5 0 0 1 .475.658l-2 6a.5.5 0 0 1 -.475.342zm-1.307-6 1.307 3.919 1.307-3.919z" fill="#212a41"/><path d="m21 22a4 4 0 0 1 4 4 0 0 0 0 1 0 0h-8a0 0 0 0 1 0 0 4 4 0 0 1 4-4z" fill="#f9ac2f"/><path d="m25 26.5h-8a.5.5 0 0 1 -.5-.5 4.5 4.5 0 0 1 9 0 .5.5 0 0 1 -.5.5zm-7.465-1h6.93a3.5 3.5 0 0 0 -6.93 0z" fill="#212a41"/><circle cx="21" cy="47" fill="#e0c8a4" r="4"/><path d="m21 51.5a4.5 4.5 0 1 1 4.5-4.5 4.505 4.505 0 0 1 -4.5 4.5zm0-8a3.5 3.5 0 1 0 3.5 3.5 3.5 3.5 0 0 0 -3.5-3.5z" fill="#212a41"/><path d="m18 51h6a4 4 0 0 1 4 4v4a0 0 0 0 1 0 0h-14a0 0 0 0 1 0 0v-4a4 4 0 0 1 4-4z" fill="#0079a8"/><path d="m28 59.5h-14a.5.5 0 0 1 -.5-.5v-4a4.505 4.505 0 0 1 4.5-4.5h6a4.505 4.505 0 0 1 4.5 4.5v4a.5.5 0 0 1 -.5.5zm-13.5-1h13v-3.5a3.5 3.5 0 0 0 -3.5-3.5h-6a3.5 3.5 0 0 0 -3.5 3.5z" fill="#212a41"/><path d="m16 57.5a.5.5 0 0 1 -.5-.5v-2a2.5 2.5 0 0 1 2.5-2.5.5.5 0 0 1 0 1 1.5 1.5 0 0 0 -1.5 1.5v2a.5.5 0 0 1 -.5.5z" fill="#1e97c6"/><path d="m26 57.5a.5.5 0 0 1 -.5-.5v-2a1.5 1.5 0 0 0 -1.5-1.5.5.5 0 0 1 0-1 2.5 2.5 0 0 1 2.5 2.5v2a.5.5 0 0 1 -.5.5z" fill="#005b8a"/><path d="m21 57-2-6h4z" fill="#e0e0e0"/><path d="m21 57.5a.5.5 0 0 1 -.475-.342l-2-6a.5.5 0 0 1 .475-.658h4a.5.5 0 0 1 .475.658l-2 6a.5.5 0 0 1 -.475.342zm-1.307-6 1.307 3.919 1.307-3.919z" fill="#212a41"/><path d="m21 43a4 4 0 0 1 4 4 0 0 0 0 1 0 0h-8a0 0 0 0 1 0 0 4 4 0 0 1 4-4z" fill="#f9ac2f"/><g fill="#212a41"><path d="m25 47.5h-8a.5.5 0 0 1 -.5-.5 4.5 4.5 0 0 1 9 0 .5.5 0 0 1 -.5.5zm-7.465-1h6.93a3.5 3.5 0 0 0 -6.93 0z"/><path d="m32 59.5a.5.5 0 0 1 -.5-.5v-42a.5.5 0 0 1 1 0v42a.5.5 0 0 1 -.5.5z"/><path d="m46 59.5a.5.5 0 0 1 -.5-.5v-42a.5.5 0 0 1 1 0v42a.5.5 0 0 1 -.5.5z"/><path d="m59 38.5h-51a.5.5 0 0 1 0-1h51a.5.5 0 0 1 0 1z"/><path d="m38 30.5a.5.5 0 0 1 -.354-.146l-2-2a.5.5 0 0 1 .708-.708l1.646 1.647 3.646-3.647a.5.5 0 0 1 .708.708l-4 4a.5.5 0 0 1 -.354.146z"/><path d="m52 30.5a.5.5 0 0 1 -.354-.146l-2-2a.5.5 0 0 1 .708-.708l1.646 1.647 3.646-3.647a.5.5 0 0 1 .708.708l-4 4a.5.5 0 0 1 -.354.146z"/></g></svg>