<svg id="Layer_3" enable-background="new 0 0 64 64" height="512" viewBox="0 0 64 64" width="512" xmlns="http://www.w3.org/2000/svg"><g><path d="m26 45 13.193 4.123c1.67.522 2.807 2.068 2.807 3.818v9.059h-40v-9.059c0-1.75 1.137-3.296 2.807-3.818l13.193-4.123" fill="#8892a0"/><path d="m42 62h20v-13.117c0-1.722-1.102-3.25-2.735-3.795l-6.265-2.088h-4l-6.265 2.088c-1.633.545-2.735 2.073-2.735 3.795v.593c1.219.703 2 2.014 2 3.464z" fill="#a8b0bc"/><path d="m49 40v3l2 2 2-2v-3" fill="#fadfb2"/><circle cx="51" cy="34" fill="#fadfb2" r="7"/><path d="m57.925 32.975-5.925-1.975-8 3c0-3.866 3.134-7 7-7 3.518 0 6.43 2.595 6.925 5.975z" fill="#c18e59"/><path d="m20 62-1-4 2-5h2l2 5-1 4z" fill="#e7e4dd"/><path d="m20 47-1 3 2 3h2l2-3-1-3" fill="#d5cec2"/><path d="m18 41v4l4 4 4-4v-4" fill="#fadfb2"/><path d="m13 30h-2c-1.105 0-2 .895-2 2 0 1.105.895 2 2 2h2.055" fill="#efbe9a"/><path d="m31 30h2c1.105 0 2 .895 2 2 0 1.105-.895 2-2 2h-2.055" fill="#efbe9a"/><path d="m13 29v4c0 4.971 4.029 9 9 9 4.971 0 9-4.029 9-9v-4l-2-4-1.6 1.2c-1.558 1.168-3.453 1.8-5.4 1.8-1.947 0-3.842-.632-5.4-1.8l-1.6-1.2z" fill="#fadfb2"/><path d="m30.993 29 1.151-2.667c.902-2.092.743-4.491-.43-6.445-.738-1.229-1.831-2.206-3.136-2.8l-2.79-1.271c-1.183-.538-2.467-.817-3.766-.817-1.966 0-3.879.638-5.452 1.817l-1.734 1.304c-1.391.304-2.617 1.169-3.366 2.418-.92 1.533-.993 3.43-.193 5.029l1.716 3.432h.007l2-4 1.6 1.2c1.558 1.168 3.453 1.8 5.4 1.8 1.947 0 3.842-.632 5.4-1.8l1.6-1.2 2 4z" fill="#c18e59"/><path d="m52 22-12 6 3-6h-4c-1.657 0-3-1.343-3-3v-14c0-1.657 1.343-3 3-3h20c1.657 0 3 1.343 3 3v14c0 1.657-1.343 3-3 3z" fill="#e7e4dd"/><g><path d="m41.5 16.999c-.827 0-1.5-.673-1.5-1.5s.673-1.5 1.5-1.5 1.5.673 1.5 1.5c-.001.827-.674 1.5-1.5 1.5z" fill="#a8b0bc"/></g><g><path d="m46.5 16.999c-.827 0-1.5-.673-1.5-1.5s.673-1.5 1.5-1.5 1.5.673 1.5 1.5c-.001.827-.674 1.5-1.5 1.5z" fill="#a8b0bc"/></g><g><path d="m51.5 16.999c-.827 0-1.5-.673-1.5-1.5s.673-1.5 1.5-1.5 1.5.673 1.5 1.5c-.001.827-.674 1.5-1.5 1.5z" fill="#a8b0bc"/></g><g><path d="m56.5 16.999c-.827 0-1.5-.673-1.5-1.5s.673-1.5 1.5-1.5 1.5.673 1.5 1.5c-.001.827-.674 1.5-1.5 1.5z" fill="#a8b0bc"/></g><path d="m56 54c-1.105 0-2-.895-2-2v-2h4v2c0 1.105-.895 2-2 2z" fill="#e7e4dd"/><g><path d="m58.999 1h-19.999c-2.206 0-4 1.794-4 4v14c0 2.206 1.794 4 4 4h2.382l-2.276 4.553c-.193.385-.117.85.187 1.154.191.191.447.293.707.293.152 0 .305-.035.447-.106l11.789-5.895h6.764c2.206 0 4-1.794 4-4v-13.999c-.001-2.207-1.795-4-4.001-4zm2 17.999c0 1.103-.897 2-2 2h-7c-.155 0-.308.037-.447.106l-9.317 4.658 1.658-3.317c.155-.31.139-.678-.043-.973-.183-.295-.504-.475-.851-.475h-4c-1.103 0-2-.897-2-2v-13.998c0-1.103.897-2 2-2h20c1.103 0 2 .897 2 2z"/><path d="m59.581 44.139-5.582-1.861v-.868c2.928-1.189 5-4.06 5-7.41 0-4.411-3.588-8-8-8s-8 3.588-8 8c0 3.35 2.072 6.221 5 7.41v.868l-5.581 1.861c-1.772.59-3.037 2.102-3.344 3.898l-12.076-3.773v-2.617c2.43-1.411 4.22-3.809 4.798-6.647h1.204c1.654-.002 3-1.348 3-3.001-.001-1.654-1.347-3-3-3h-.918l.98-2.271c1.027-2.382.844-5.132-.491-7.356-.846-1.409-2.083-2.514-3.579-3.195l-2.791-1.271c-3.294-1.5-7.335-1.062-10.231 1.11l-1.577 1.183.002.003c-1.561.407-2.937 1.411-3.783 2.822-1.102 1.835-1.188 4.075-.23 5.99l1.493 2.986h-.875c-.802 0-1.555.312-2.122.878-.566.567-.878 1.321-.878 2.122 0 1.652 1.345 2.998 3 3h1.202c.578 2.838 2.368 5.236 4.798 6.647v2.617l-12.492 3.903c-2.099.657-3.509 2.575-3.508 4.773v9.059c0 .553.447 1 1 1h39.999v.001l20-.002c.552 0 1-.447 1-1v-13.115c0-2.157-1.374-4.064-3.418-4.744zm-8.581-16.139c2.382 0 4.438 1.398 5.406 3.415l-4.09-1.363c-.216-.073-.453-.068-.667.012l-6.447 2.417c.675-2.575 3.014-4.481 5.798-4.481zm-5.96 6.676 6.979-2.616 4.966 1.654c.004.095.014.188.014.284 0 3.308-2.691 5.999-6 5.999-3.079.001-5.621-2.331-5.959-5.321zm5.96 7.322c.339 0 .671-.028 1-.069v.655l-1 1-1-1v-.655c.328.041.66.069 1 .069zm-17-9.998c0 .551-.449.999-1 1h-1.001v-2h1.001c.551 0 1 .448 1 1zm-21.673-10.947c.76-1.267 2.149-2.053 3.626-2.053 1.568 0 3.023.779 3.894 2.084l.314.471 1.664-1.11-.313-.47c-.902-1.353-2.247-2.302-3.772-2.725 2.264-1.404 5.199-1.63 7.634-.523l2.791 1.271c1.125.513 2.057 1.344 2.692 2.404 1.004 1.674 1.143 3.743.37 5.535l-.296.687-1.035-2.07c-.132-.266-.376-.458-.665-.526-.289-.064-.593-.003-.83.173l-1.599 1.2c-1.378 1.03-3.083 1.599-4.802 1.599s-3.424-.568-4.8-1.6l-1.6-1.2c-.237-.177-.538-.238-.83-.173-.289.068-.532.261-.665.526l-1.109 2.218-.826-1.651c-.649-1.301-.591-2.821.157-4.067zm-1.327 11.947c-.551-.001-1-.45-1-1.001 0-.267.104-.518.292-.707.189-.188.44-.292.708-.292h1v2zm3 0v-3.765l1.358-2.717.642.482c1.72 1.29 3.851 2 6 2s4.28-.71 6-2l.641-.481 1.358 2.717v3.764c0 4.411-3.588 8-8 8-4.411 0-7.999-3.589-7.999-8zm8 10c1.045 0 2.052-.162 2.999-.461v2.046l-3 3-3-3v-2.046c.948.298 1.956.461 3.001.461zm1.218 17.999h-2.438l-.732-2.93 1.629-4.071h.646l1.629 4.071zm.678-11.148-1.432 2.147h-.929l-1.432-2.147.333-1 .856.856c.195.195.451.292.708.292.256 0 .512-.097.707-.292l.856-.856zm-20.896 3.088c0-1.318.845-2.47 2.104-2.863l12.615-3.942 1.135 1.135-.804 2.413c-.098.292-.055.614.116.871l1.708 2.562-1.804 4.511c-.078.195-.093.41-.042.614l.689 2.758h-15.717zm37.999 8.06h-15.719l.689-2.758c.051-.204.037-.419-.042-.614l-1.804-4.511 1.708-2.562c.171-.257.214-.579.116-.871l-.804-2.413 1.135-1.135 12.615 3.942c1.259.394 2.105 1.545 2.105 2.864v8.058zm20 0-18 .001v-8.06c0-1.615-.765-3.073-2-3.996v-.061c0-1.294.824-2.438 2.051-2.847l5.678-1.893 1.563 1.563c.195.195.451.292.708.292.256 0 .512-.097.707-.292l1.563-1.563 5.679 1.893c1.227.408 2.051 1.553 2.051 2.847z"/><path d="m41.5 14c-.827 0-1.5.673-1.5 1.5s.673 1.5 1.5 1.5 1.5-.673 1.5-1.5c-.001-.828-.674-1.5-1.5-1.5z"/><path d="m46.5 14c-.827 0-1.5.673-1.5 1.5s.673 1.5 1.5 1.5 1.5-.673 1.5-1.5c-.001-.828-.674-1.5-1.5-1.5z"/><path d="m51.5 14c-.827 0-1.5.673-1.5 1.5s.673 1.5 1.5 1.5 1.5-.673 1.5-1.5c-.001-.828-.674-1.5-1.5-1.5z"/><path d="m56.5 14c-.827 0-1.5.673-1.5 1.5s.673 1.5 1.5 1.5 1.5-.673 1.5-1.5c-.001-.828-.674-1.5-1.5-1.5z"/><path d="m57.999 48.999h-4c-.553 0-1 .447-1 1v2.001c0 1.653 1.346 2.998 3 2.998s2.999-1.345 2.999-2.998v-2.001c.001-.553-.446-1-.999-1zm-1 3.001c0 .551-.448.998-.999.998-.552 0-1-.447-1-.998v-1.001h2v1.001z"/></g></g></svg>