<?xml version="1.0" encoding="iso-8859-1"?>
<!-- Generator: Adobe Illustrator 19.0.0, SVG Export Plug-In . SVG Version: 6.00 Build 0)  -->
<svg version="1.1" id="Capa_1" xmlns="http://www.w3.org/2000/svg" xmlns:xlink="http://www.w3.org/1999/xlink" x="0px" y="0px"
	 viewBox="0 0 512 512" style="enable-background:new 0 0 512 512;" xml:space="preserve">
<path style="fill:#EFEFEF;" d="M322.551,7.5c-24.699,0-208.094,0-232.625,0c-17.318,0-31.488,14.17-31.488,31.489
	c0,475.293-1.336,438.272,3.117,447.479c5.176,10.696,16.08,17.868,28.371,17.868c0.132,0,234.041,0.668,240.471-0.996
	c10.207-2.643,18.242-10.229,21.724-19.695c2.742-7.453,1.919,19.451,1.919-444.657C354.04,21.67,339.87,7.5,322.551,7.5z"/>
<path style="fill:#E6E6E6;" d="M119.232,504.401c-10.252-1.61-19.031-8.673-23.512-17.934c-4.453-9.207-3.117,27.814-3.117-447.479
	c0-17.319,14.17-31.488,31.488-31.488c-16.538,0-28.947,0-34.164,0c-17.319,0-31.488,14.17-31.488,31.488
	c0,475.293-1.336,438.272,3.117,447.479c5.176,10.696,16.08,17.868,28.371,17.868C89.956,504.336,101.381,504.368,119.232,504.401
	L119.232,504.401z"/>
<path style="fill:#FC7777;" d="M305.358,43.889h-26.939c-5.365,0-9.715,4.35-9.715,9.715v4.751c0,6.6-5.4,12-12,12h-101
	c-6.6,0-12-5.4-12-12v-4.636c0-5.429-4.401-9.83-9.831-9.83h-26.655c-8.082,0-14.633,6.56-14.633,14.642
	c0,177.361-0.241,261.701-0.149,302.289c-0.095,104.401,0.061,96.189,1.915,99.602c2.478,4.561,7.311,7.658,12.867,7.658
	c8.827,0,190.479,0,198.141,0c8.108,0,14.633-6.576,14.633-14.633c0-4.133,0-26.534,0-59.744c0-67.879,0-180.918,0-275.436V58.523
	C319.991,50.44,313.439,43.889,305.358,43.889z"/>
<path style="fill:#F75C5C;" d="M124.351,460.422c-1.854-3.413-2.009,4.799-1.915-99.602c-0.092-40.588,0.149-124.928,0.149-302.289
	c0-7.459,5.584-13.608,12.797-14.514c-0.493-0.076-0.994-0.127-1.509-0.127h-26.655c-8.082,0-14.633,6.56-14.633,14.642
	c0,177.361-0.241,261.701-0.149,302.289c-0.095,104.401,0.061,96.189,1.915,99.602c2.478,4.561,7.311,7.658,12.867,7.658
	c2.06,0,13.529,0,30,0C131.661,468.08,126.828,464.983,124.351,460.422z"/>
<path style="fill:#F9F6ED;" d="M236.779,403.281c2.506-1.651,5.752-1.651,8.258,0l18.935,12.485c4.409,2.907,10.127,2.907,14.536,0
	l18.935-12.485c2.506-1.651,5.753-1.652,8.257-0.001l20.001,13.187c3.764,2.482,8.646,2.482,12.41-0.001l19.993-13.185
	c2.505-1.652,5.753-1.652,8.257,0l19.866,13.099c3.844,2.535,8.829,2.535,12.674,0l19.866-13.099
	c2.506-1.651,5.753-1.652,8.257-0.001l16.76,11.05c3.796,2.503,8.851-0.22,8.851-4.766V149.043c0-6.6-5.4-12-12-12H223.206
	c-6.6,0-12,5.4-12,12v260.249c0,4.653,5.174,7.439,9.059,4.878L236.779,403.281z"/>
<path style="fill:#EFECE4;" d="M241.207,149.043c0-6.6,5.4-12,12-12h-30c-6.6,0-12,5.4-12,12v260.25
	c0,4.653,5.174,7.439,9.059,4.878l16.514-10.889c1.34-0.883,2.891-1.278,4.427-1.217V149.043z"/>
<path style="fill:#F94A46;" d="M211.207,149.043v24.389h241.429v-24.389c0-6.6-5.4-12-12-12H223.207
	C216.606,137.043,211.207,142.443,211.207,149.043z"/>
<path style="fill:#EA3B3B;" d="M241.207,149.043c0-6.599,5.4-11.999,11.999-12h-29.999c-6.6,0-12,5.4-12,12v24.389h30V149.043z"/>
<path d="M230.911,36.389c-4.142,0-7.5,3.358-7.5,7.5c0,4.143,3.358,7.5,7.5,7.5h0.5c4.142,0,7.5-3.357,7.5-7.5
	c0-4.142-3.358-7.5-7.5-7.5H230.911z"/>
<path d="M411.496,201.868h-158c-4.142,0-7.5,3.357-7.5,7.5s3.358,7.5,7.5,7.5h158c4.142,0,7.5-3.357,7.5-7.5
	C418.996,205.226,415.639,201.868,411.496,201.868z"/>
<path d="M411.496,232.909h-158c-4.142,0-7.5,3.357-7.5,7.5s3.358,7.5,7.5,7.5h158c4.142,0,7.5-3.357,7.5-7.5
	C418.996,236.267,415.639,232.909,411.496,232.909z"/>
<path d="M411.496,294.993h-158c-4.142,0-7.5,3.357-7.5,7.5s3.358,7.5,7.5,7.5h158c4.142,0,7.5-3.357,7.5-7.5
	C418.996,298.351,415.639,294.993,411.496,294.993z"/>
<path d="M411.496,263.951h-158c-4.142,0-7.5,3.357-7.5,7.5s3.358,7.5,7.5,7.5h158c4.142,0,7.5-3.357,7.5-7.5
	C418.996,267.309,415.639,263.951,411.496,263.951z"/>
<path d="M411.496,357.076h-158c-4.142,0-7.5,3.357-7.5,7.5s3.358,7.5,7.5,7.5h158c4.142,0,7.5-3.357,7.5-7.5
	C418.996,360.434,415.639,357.076,411.496,357.076z"/>
<path d="M411.496,326.034h-158c-4.142,0-7.5,3.357-7.5,7.5c0,4.142,3.358,7.5,7.5,7.5h158c4.142,0,7.5-3.358,7.5-7.5
	S415.639,326.034,411.496,326.034z"/>
<path d="M453.21,323.534c4.143,0,7.5-3.358,7.5-7.5c0-1.702,0.001-166.639,0.001-166.991c0-10.752-8.748-19.5-19.5-19.5
	c-4.812,0-74.606,0-79.082,0l-0.006-28.432c-0.001-4.143-3.359-7.5-7.501-7.499s-7.5,3.359-7.499,7.501l0.006,28.43h-19.06v-71.02
	c0-12.204-9.929-22.134-22.134-22.134h-26.938c-9.493,0-17.216,7.723-17.216,17.215v4.752c0,2.439-2.06,4.5-4.5,4.5H156.282
	c-2.439,0-4.5-2.061-4.5-4.5v-4.637c0-9.556-7.774-17.33-17.331-17.33h-26.655c-12.205,0-22.134,9.933-22.134,22.142
	c0,429.576-1.464,396.239,2.717,405.547c3.891,7.098,11.322,11.503,19.416,11.503h14.18c4.142,0,7.5-3.358,7.5-7.5
	c0-4.143-3.358-7.5-7.5-7.5h-14.18c-2.619,0-5.024-1.433-6.277-3.739c-0.146-0.269-0.286-0.503-0.416-0.711
	c-1.133-8.394-0.44-99.781-0.44-397.6c0-3.938,3.2-7.142,7.134-7.142h26.655c1.285,0,2.331,1.045,2.331,2.33v4.637
	c0,10.752,8.748,19.5,19.5,19.5h100.999c10.752,0,19.5-8.748,19.5-19.5v-4.752c0-1.222,0.994-2.215,2.216-2.215h26.938
	c3.934,0,7.134,3.2,7.134,7.134v71.02h-89.288c-10.752,0-19.5,8.748-19.5,19.5c0,15.359,0,248.061,0,260.249
	c0,10.615,11.828,16.982,20.688,11.14l16.515-10.889l18.935,12.485c6.925,4.565,15.871,4.564,22.794,0l18.935-12.486l10.923,7.202
	v36.702c0,3.934-3.2,7.134-7.133,7.134H156.976c-4.142,0-7.5,3.357-7.5,7.5c0,4.142,3.358,7.5,7.5,7.5h148.961
	c12.204,0,22.133-9.93,22.133-22.134v-28.15c10.135,2.453,16.281-3.924,19.145-5.469c-0.089,64.657-0.521,58.425-1.554,61.23
	c-2.693,7.322-8.747,12.883-16.235,14.935c-13.786,1.439-235.942,0.847-238.92,0.845c-9.125,0-17.612-5.353-21.619-13.634
	c-0.464-0.959-0.877-1.616-1.384-2.37c-1.808-7.257-0.985-74.869-0.985-441.844C66.517,25.761,77.278,15,90.505,15H323.13
	c13.228,0,23.988,10.761,23.988,23.988l0.001,27.125c0,4.142,3.358,7.499,7.501,7.499c4.142,0,7.499-3.358,7.499-7.501
	l-0.001-27.123C362.118,17.49,344.628,0,323.13,0H90.505C69.007,0,51.517,17.49,51.517,38.988
	c0,475.508-1.637,439.445,3.866,450.746c11.128,22.996,35.152,22.071,35.252,22.102c9.528,0.026,234.372,0.795,242.22-1.235
	c12.402-3.211,22.452-12.32,26.882-24.364c2.094-5.663,2.426-0.118,2.487-76.309l0.583-0.385l19.865,13.099
	c6.358,4.191,14.574,4.193,20.933,0l19.865-13.1l16.76,11.05c8.774,5.784,20.48-0.521,20.48-11.027v-58.53
	c0-4.143-3.357-7.5-7.5-7.5s-7.5,3.357-7.5,7.5v55.203l-13.982-9.218c-5.013-3.308-11.494-3.306-16.515,0l-19.865,13.099
	c-1.342,0.886-3.075,0.885-4.417,0l-19.864-13.098c-5.018-3.309-11.501-3.309-16.517,0l-19.994,13.185
	c-1.261,0.834-2.89,0.829-4.152-0.001c-1.654-1.091-17.48-11.525-19.999-13.186c-4.875-3.214-11.368-3.389-16.516,0
	c-20.178,13.267-18.88,12.539-19.756,12.929c-1.794,0.8-3.892,0.589-5.457-0.444l-18.937-12.486
	c-5.016-3.305-11.496-3.304-16.513,0.001l-13.944,9.194V180.932H445.71v135.103C445.71,320.177,449.067,323.534,453.21,323.534z
	 M219.281,165.932v-16.889c0-2.439,2.061-4.5,4.5-4.5c23.651,0,193.151,0,217.429,0c2.439,0,4.5,2.061,4.5,4.5v16.889H219.281z"/>
<path d="M205.911,36.389c-15.26,0-10.328,0-26,0c-4.142,0-7.5,3.357-7.5,7.5s3.358,7.5,7.5,7.5c15.26,0,10.328,0,26,0
	c4.142,0,7.5-3.357,7.5-7.5S210.053,36.389,205.911,36.389z"/>
<g>
</g>
<g>
</g>
<g>
</g>
<g>
</g>
<g>
</g>
<g>
</g>
<g>
</g>
<g>
</g>
<g>
</g>
<g>
</g>
<g>
</g>
<g>
</g>
<g>
</g>
<g>
</g>
<g>
</g>
</svg>
