<svg height="512pt" viewBox="0 0 512 512" width="512pt" xmlns="http://www.w3.org/2000/svg"><path d="m30 50v240h382v-240zm0 0" fill="#ede9e8"/><path d="m30 10c-11.050781 0-20 8.949219-20 20s8.949219 20 20 20h333.011719l48.988281-40zm0 0" fill="#656d88"/><path d="m362 502v-172h-40c0-3.183594 0-106.949219 0-110 0-49.710938 40.289062-90 90-90 49.703125 0 90 40.277344 90 90v110h-40v172c-27.101562 0-84.039062 0-100 0zm0 0" fill="#5c9cee"/><path d="m412 10c27.609375 0 50 22.390625 50 50s-22.390625 50-50 50-50-22.390625-50-50c0-27.449219 22.253906-50 50-50zm0 0" fill="#5c9cee"/><path d="m256 370c0 11.046875-8.953125 20-20 20s-20-8.953125-20-20 8.953125-20 20-20 20 8.953125 20 20zm0 0" fill="#ed5575"/><path d="m422 330c0 5.523438-4.476562 10-10 10s-10-4.476562-10-10 4.476562-10 10-10 10 4.476562 10 10zm0 0"/><path d="m100 110c0 5.523438-4.476562 10-10 10s-10-4.476562-10-10 4.476562-10 10-10 10 4.476562 10 10zm0 0"/><path d="m100 170c0 5.523438-4.476562 10-10 10s-10-4.476562-10-10 4.476562-10 10-10 10 4.476562 10 10zm0 0"/><path d="m100 230c0 5.523438-4.476562 10-10 10s-10-4.476562-10-10 4.476562-10 10-10 10 4.476562 10 10zm0 0"/><path d="m412 120c-55.140625 0-100 44.859375-100 100v60h-272v-220h312c0 33.085938 26.914062 60 60 60s60-26.914062 60-60-26.914062-60-60-60h-382c-16.542969 0-30 13.457031-30 30 0 13.035156 8.359375 24.152344 20 28.28125v231.71875c0 5.523438 4.476562 10 10 10h196v41.71875c-11.640625 4.128906-20 15.246094-20 28.28125 0 16.542969 13.457031 30 30 30s30-13.457031 30-30c0-13.035156-8.359375-24.152344-20-28.28125v-41.71875h66v30c0 5.523438 4.476562 10 10 10h30v162c0 5.523438 4.476562 10 10 10h100c5.523438 0 10-4.476562 10-10v-162h30c5.523438 0 10-4.476562 10-10v-110c0-55.257812-44.699219-100-100-100zm40-60c0 22.054688-17.945312 40-40 40s-40-17.945312-40-40c0-2.722656.269531-5.40625.8125-8.011719 3.757812-18.535156 20.242188-31.988281 39.1875-31.988281 22.054688 0 40 17.945312 40 40zm-422-40.011719h337.332031c-5.167969 5.75-9.257812 12.523438-11.902343 20.011719h-325.429688c-5.515625 0-10-4.484375-10-10s4.484375-10.011719 10-10.011719zm206 360.011719c-5.515625 0-10-4.484375-10-10s4.484375-10 10-10 10 4.484375 10 10-4.484375 10-10 10zm256-60h-30c-5.523438 0-10 4.476562-10 10v162h-30v-122c0-5.523438-4.476562-10-10-10s-10 4.476562-10 10v122h-30v-162c0-5.523438-4.476562-10-10-10h-30v-100c0-44.113281 35.886719-80 80-80 44.207031 0 80 35.757812 80 80zm0 0"/><path d="m256 100h-126c-5.523438 0-10 4.476562-10 10s4.476562 10 10 10h126c5.523438 0 10-4.476562 10-10s-4.476562-10-10-10zm0 0"/><path d="m256 160h-126c-5.523438 0-10 4.476562-10 10s4.476562 10 10 10h126c5.523438 0 10-4.476562 10-10s-4.476562-10-10-10zm0 0"/><path d="m256 220h-126c-5.523438 0-10 4.476562-10 10s4.476562 10 10 10h126c5.523438 0 10-4.476562 10-10s-4.476562-10-10-10zm0 0"/></svg>