<svg id="Filled" height="512" viewBox="0 0 512 512" width="512" xmlns="http://www.w3.org/2000/svg"><path d="m80 40h384v448h-352a32 32 0 0 1 -32-32z" fill="#1261a0"/><path d="m144 24h288v432h-288z" fill="#2d85cc"/><path d="m144 456h-64v-432h64" fill="#f7b030"/><path d="m184 64h208v96h-208z" fill="#f7b030"/><g fill="#1261a0"><rect height="64" rx="16" transform="matrix(0 -1 1 0 -320 480)" width="32" x="64" y="368"/><rect height="64" rx="16" transform="matrix(0 -1 1 0 -240 400)" width="32" x="64" y="288"/><rect height="64" rx="16" transform="matrix(0 -1 1 0 -160 320)" width="32" x="64" y="208"/><rect height="64" rx="16" transform="matrix(0 -1 1 0 -80 240)" width="32" x="64" y="128"/><rect height="64" rx="16" transform="matrix(0 -1 1 0 0 160)" width="32" x="64" y="48"/></g><path d="m400 160v-96a8 8 0 0 0 -8-8h-208a8 8 0 0 0 -8 8v96a8 8 0 0 0 8 8h208a8 8 0 0 0 8-8zm-16-8h-192v-80h192z"/><path d="m64 376a24 24 0 0 0 0 48h8v32a40.045 40.045 0 0 0 40 40h352a8 8 0 0 0 8-8v-448a8 8 0 0 0 -8-8h-24v-8a8 8 0 0 0 -8-8h-352a8 8 0 0 0 -8 8v32h-8a24 24 0 0 0 0 48h8v32h-8a24 24 0 0 0 0 48h8v32h-8a24 24 0 0 0 0 48h8v32h-8a24 24 0 0 0 0 48h8v32zm-8 24a8.009 8.009 0 0 1 8-8h32a8 8 0 0 1 0 16h-32a8.009 8.009 0 0 1 -8-8zm96-368h272v416h-272zm280 432a8 8 0 0 0 8-8v-408h16v432h-344a24.039 24.039 0 0 1 -22.624-16zm-368-376a8 8 0 0 1 0-16h32a8 8 0 0 1 0 16zm-8 72a8.009 8.009 0 0 1 8-8h32a8 8 0 0 1 0 16h-32a8.009 8.009 0 0 1 -8-8zm0 80a8.009 8.009 0 0 1 8-8h32a8 8 0 0 1 0 16h-32a8.009 8.009 0 0 1 -8-8zm0 80a8.009 8.009 0 0 1 8-8h32a8 8 0 0 1 0 16h-32a8.009 8.009 0 0 1 -8-8zm32 24h8a24 24 0 0 0 0-48h-8v-32h8a24 24 0 0 0 0-48h-8v-32h8a24 24 0 0 0 0-48h-8v-32h8a24 24 0 0 0 0-48h-8v-24h48v416h-48v-24h8a24 24 0 0 0 0-48h-8z"/><path d="m320 408h-16a8 8 0 0 0 0 16h16a8 8 0 0 0 0-16z"/><path d="m320 376h-16a8 8 0 0 0 0 16h16a8 8 0 0 0 0-16z"/><path d="m400 408h-48a8 8 0 0 0 0 16h48a8 8 0 0 0 0-16z"/><path d="m400 376h-48a8 8 0 0 0 0 16h48a8 8 0 0 0 0-16z"/></svg>