<?xml version="1.0" encoding="iso-8859-1"?>
<!-- Generator: Adobe Illustrator 19.0.0, SVG Export Plug-In . SVG Version: 6.00 Build 0)  -->
<svg version="1.1" id="Capa_1" xmlns="http://www.w3.org/2000/svg" xmlns:xlink="http://www.w3.org/1999/xlink" x="0px" y="0px"
	 viewBox="0 0 512 512" style="enable-background:new 0 0 512 512;" xml:space="preserve">
<g>
	<path style="fill:#B9CDD2;" d="M346.026,7.709c0-4.257-3.451-7.709-7.709-7.709s-7.709,3.451-7.709,7.709v52.459
		c-1.834-0.378-3.766-0.595-5.78-0.595c-11.886,0-21.198,7.011-21.198,15.959c0,8.949,9.312,15.959,21.198,15.959
		s21.198-7.009,21.198-15.959c0-0.056-0.01-0.109-0.011-0.165c0.002-0.071,0.011-0.141,0.011-0.212L346.026,7.709L346.026,7.709z"/>
	<path style="fill:#B9CDD2;" d="M496.127,250.201c0-2.429-1.169-4.709-3.142-6.128c-1.972-1.418-4.506-1.799-6.809-1.026
		l-54.318,18.247c-3.074,1.033-5.146,3.913-5.146,7.155v51.38c-1.817-0.379-3.732-0.596-5.731-0.596
		c-11.639,0-20.756,6.864-20.756,15.626c0,8.763,9.118,15.626,20.756,15.626c11.158,0,19.975-6.313,20.687-14.556
		c0.09-0.466,0.141-0.947,0.141-1.44v-60.616l39.221-13.177v40.868c-1.796-0.37-3.688-0.582-5.66-0.582
		c-11.639,0-20.756,6.864-20.756,15.626c0,8.763,9.118,15.626,20.756,15.626s20.756-6.864,20.756-15.626
		c0-0.055-0.01-0.107-0.01-0.161c0.002-0.069,0.01-0.137,0.01-0.206L496.127,250.201L496.127,250.201z"/>
</g>
<path style="fill:#0073AA;" d="M324.828,59.572c-11.886,0-21.198,7.011-21.198,15.959c0,8.949,9.312,15.959,21.198,15.959
	s21.198-7.009,21.198-15.959C346.026,66.582,336.714,59.572,324.828,59.572z"/>
<g>
	<path style="fill:#DD3E3E;" d="M420.981,319.233c-11.639,0-20.756,6.864-20.756,15.626c0,8.763,9.118,15.626,20.756,15.626
		c11.639,0,20.756-6.864,20.756-15.626C441.738,326.097,432.62,319.233,420.981,319.233z"/>
	<path style="fill:#DD3E3E;" d="M475.371,300.986c-11.639,0-20.756,6.864-20.756,15.626c0,8.763,9.118,15.626,20.756,15.626
		s20.756-6.864,20.756-15.626C496.127,307.849,487.01,300.986,475.371,300.986z"/>
</g>
<path style="fill:#45484B;" d="M223.179,512c-1.361,0-2.74-0.11-4.127-0.338c-13.751-2.263-23.063-15.245-20.801-28.995
	l14.846-102.203l-75.209-36.801c-13.104-4.741-19.578-18.882-14.838-31.988c4.742-13.107,19.207-19.884,32.312-15.144l94.622,43.611
	c11.429,4.135,18.288,15.832,16.315,27.825l-18.25,122.895C246.011,503.225,235.311,512,223.179,512z"/>
<circle style="fill:#EDB59E;" cx="250.128" cy="114.133" r="43.581"/>
<g>
	<path style="fill:#EDC75E;" d="M370.378,101.951c-2.187-4.505-0.309-9.931,4.196-12.118l72.21-35.061
		c4.505-2.186,9.93-0.309,12.118,4.196c2.186,4.505,0.309,9.931-4.196,12.118l-72.21,35.061
		C377.971,108.343,372.557,106.437,370.378,101.951z"/>
	<path style="fill:#EDC75E;" d="M453.759,194.882l-72.21-35.061c-4.505-2.187-6.384-7.613-4.196-12.118
		c2.189-4.505,7.614-6.38,12.118-4.196l72.21,35.061c4.505,2.187,6.384,7.613,4.196,12.118
		C463.699,195.167,458.287,197.079,453.759,194.882z"/>
	<path style="fill:#EDC75E;" d="M474.101,131.428h-74.353c-5.007,0-9.068-4.059-9.068-9.068c0-5.008,4.059-9.068,9.068-9.068h74.353
		c5.007,0,9.068,4.06,9.068,9.068C483.168,127.368,479.108,131.428,474.101,131.428z"/>
</g>
<path style="fill:#52565A;" d="M241.231,223.22c6.828-14.756,0.399-32.253-14.356-39.08l-47.646-22.045
	c-14.756-6.828-32.253-0.399-39.08,14.356L80.305,305.794c-2.311,4.995-2.763,10.65-1.274,15.949l20.25,72.066L23.37,468.816
	c-9.913,9.795-10.008,25.771-0.214,35.683c4.936,4.996,11.441,7.498,17.95,7.498c6.406-0.001,12.817-2.425,17.733-7.284
	l86.406-85.378c6.483-6.406,9.008-15.812,6.605-24.604l-13.963-51.069l39.035,19.1L241.231,223.22z"/>
<path style="fill:#2E3133;" d="M226.875,184.14l-47.646-22.045c-3.689-1.707-7.549-2.586-11.371-2.713
	c-1.433-0.048-2.861,0.01-4.273,0.171c-1.411,0.16-2.806,0.421-4.174,0.78c-0.911,0.239-1.811,0.522-2.695,0.847
	c-7.072,2.598-13.153,7.894-16.567,15.272L80.304,305.795c-1.243,2.686-1.929,5.564-2.084,8.473l98.701,48.493l64.309-139.543
	C248.059,208.463,241.632,190.968,226.875,184.14z"/>
<g>
	<path style="fill:#EDB59E;" d="M226.875,184.14l-47.646-22.045L226.875,184.14z"/>
	<path style="fill:#EDB59E;" d="M163.585,159.552c0.627-0.07,1.257-0.114,1.89-0.145
		C164.842,159.438,164.211,159.482,163.585,159.552z"/>
	<path style="fill:#EDB59E;" d="M161.715,159.833c0.619-0.11,1.242-0.209,1.868-0.28
		C162.957,159.623,162.335,159.721,161.715,159.833z"/>
	<path style="fill:#EDB59E;" d="M229.527,185.532L229.527,185.532L229.527,185.532z"/>
	<path style="fill:#EDB59E;" d="M165.95,159.389c0.634-0.02,1.269-0.028,1.906-0.007C167.22,159.361,166.584,159.369,165.95,159.389
		z"/>
	<path style="fill:#EDB59E;" d="M382.694,194.672c-5.656-10.142-18.463-13.779-28.606-8.124l-57.718,32.187l-64.391-31.582
		c11.043,8.119,15.23,23.143,9.252,36.066l-5.756,12.49l52.26,25.633c2.925,1.434,6.094,2.148,9.259,2.148
		c3.535,0,7.064-0.89,10.242-2.663l67.334-37.549C384.713,217.621,388.35,204.814,382.694,194.672z"/>
	<path style="fill:#EDB59E;" d="M156.716,161.179c0.883-0.325,1.784-0.607,2.695-0.847c0.607-0.16,1.221-0.292,1.838-0.413
		c-8.492,1.659-16.144,7.02-20.43,15.172C144.326,168.422,150.085,163.614,156.716,161.179z"/>
</g>
<g>
	<polygon style="fill:#2E3133;" points="163.585,159.553 163.583,159.553 163.585,159.552 	"/>
	<path style="fill:#2E3133;" d="M165.474,159.408c0.158-0.008,0.318-0.015,0.476-0.019
		C165.792,159.394,165.633,159.4,165.474,159.408z"/>
	<path style="fill:#2E3133;" d="M161.249,159.92c0.155-0.03,0.311-0.059,0.466-0.087C161.56,159.861,161.404,159.89,161.249,159.92z
		"/>
	<path style="fill:#2E3133;" d="M231.98,187.154c-0.783-0.577-1.602-1.118-2.453-1.621
		C230.378,186.036,231.197,186.577,231.98,187.154L231.98,187.154z"/>
	<path style="fill:#2E3133;" d="M176.922,362.763l-98.697-48.534c0,0.013-0.003,0.028-0.004,0.041L176.922,362.763l58.553-127.053
		l-0.019-0.009L176.922,362.763z"/>
	<path style="fill:#2E3133;" d="M170.728,159.62c1.436,0.191,2.869,0.489,4.29,0.9C173.597,160.109,172.164,159.81,170.728,159.62z"
		/>
	<path style="fill:#2E3133;" d="M226.875,184.14L226.875,184.14c0.917,0.424,1.8,0.889,2.651,1.393
		C228.676,185.029,227.792,184.564,226.875,184.14z"/>
	<path style="fill:#2E3133;" d="M167.857,159.382c0.956,0.032,1.914,0.11,2.87,0.238
		C169.771,159.493,168.813,159.415,167.857,159.382z"/>
	<path style="fill:#2E3133;" d="M231.98,187.154L231.98,187.154c-0.783-0.577-1.602-1.118-2.453-1.621h-0.001
		c-0.851-0.503-1.735-0.968-2.651-1.393l-47.646-22.045c-1.383-0.64-2.791-1.163-4.211-1.575c-1.42-0.41-2.854-0.709-4.29-0.9
		c-0.957-0.127-1.915-0.205-2.87-0.238c-0.637-0.021-1.273-0.013-1.906,0.007c-0.16,0.004-0.318,0.011-0.476,0.019
		c-0.632,0.03-1.263,0.074-1.89,0.145c-0.001,0-0.001,0-0.001,0c-0.627,0.071-1.249,0.17-1.868,0.28
		c-0.155,0.028-0.311,0.057-0.466,0.087c-0.617,0.12-1.231,0.253-1.838,0.413c-0.911,0.239-1.811,0.522-2.695,0.847
		c-6.63,2.436-12.389,7.243-15.896,13.913c-0.234,0.445-0.457,0.898-0.672,1.359L80.304,305.795
		c-1.237,2.673-1.921,5.537-2.079,8.433l98.697,48.534L235.458,235.7l0.019,0.009l5.756-12.49
		C247.21,210.297,243.023,195.273,231.98,187.154z"/>
</g>
<path style="fill:#EDB59E;" d="M160.335,196.179c-5.016,0-10.047-1.782-14.067-5.403l-64.23-57.856
	c-2.141-1.928-3.862-4.276-5.056-6.896L37.533,39.553c-4.82-10.566-0.163-23.037,10.403-27.857
	c10.568-4.819,23.037-0.162,27.857,10.403l37.635,82.498l60.986,54.934c8.628,7.772,9.322,21.068,1.55,29.697
	C171.814,193.834,166.084,196.179,160.335,196.179z"/>
<path style="fill:#3B3E43;" d="M392.93,264.852c-4.281,1.307-9.098-0.184-11.832-4.032l-50.076-70.457
	c-3.419-4.81-2.291-11.481,2.519-14.9c4.816-3.421,11.484-2.29,14.9,2.52l50.076,70.458c3.419,4.81,2.291,11.481-2.52,14.9
	C395.037,264.022,393.999,264.525,392.93,264.852z"/>
<circle style="fill:#DD3E3E;" cx="332.872" cy="173.486" r="20.85"/>
<g>
</g>
<g>
</g>
<g>
</g>
<g>
</g>
<g>
</g>
<g>
</g>
<g>
</g>
<g>
</g>
<g>
</g>
<g>
</g>
<g>
</g>
<g>
</g>
<g>
</g>
<g>
</g>
<g>
</g>
</svg>
