<?xml version="1.0" encoding="iso-8859-1"?>
<!-- Generator: Adobe Illustrator 19.0.0, SVG Export Plug-In . SVG Version: 6.00 Build 0)  -->
<svg version="1.1" id="Capa_1" xmlns="http://www.w3.org/2000/svg" xmlns:xlink="http://www.w3.org/1999/xlink" x="0px" y="0px"
	 viewBox="0 0 494.758 494.758" style="enable-background:new 0 0 494.758 494.758;" xml:space="preserve">
<g>
	<g>
		<path style="fill:#EDB288;" d="M470.454,309.289c9.198,11.165,7.807,27.63-3.135,37.094l-74.188,61.649
			c-27.862,23.371-63.454,35.484-99.788,33.959l-107.624-5.225c-12.057-0.607-24.143,0.094-36.049,2.09l-44.931,8.359h-3.135
			V314.513h2.09l46.498-22.465c23.521-12.209,49.792-18.147,76.278-17.241l71.053,3.135h1.567
			c13.287-0.096,24.528,9.797,26.122,22.988c1.62,13.856-7.722,26.616-21.42,29.257l-52.767,9.927
			c-8.501,1.634-14.067,9.849-12.434,18.35c0.351,1.824,1.023,3.571,1.985,5.16l5.747,9.927c2.675,4.918,8.006,7.788,13.584,7.314
			l51.2-1.567c19.24-0.448,37.792-7.244,52.767-19.331l68.441-55.38c11.692-9.356,28.75-7.487,38.139,4.18L470.454,309.289z"/>
		<path style="fill:#FEDB41;" d="M327.303,10.97c66.941-0.289,121.441,53.744,121.729,120.685s-53.744,121.441-120.685,121.73
			S206.907,199.641,206.619,132.7c-0.001-0.174-0.001-0.348-0.001-0.521C206.329,65.526,260.128,11.26,326.78,10.972
			C326.954,10.971,327.129,10.97,327.303,10.97z"/>
		<path style="fill:#00ACEA;" d="M101.605,447.215v19.331c0,11.494-9.404,15.673-20.898,15.673H39.956
			c-11.494,0-20.898-4.18-20.898-15.673V313.991c0-11.542,9.356-20.898,20.898-20.898h40.751c11.542,0,20.898,9.356,20.898,20.898
			l0,0V447.215z"/>
	</g>
	<g>
		<path style="fill:#224099;" d="M479.336,303.542l-1.045-1.567c-13.163-15.95-36.732-18.284-52.767-5.224l-67.918,54.857
			c-13.262,10.563-29.556,16.605-46.498,17.241l-51.2,1.567c-1.826,0.177-3.61-0.616-4.702-2.09l-5.747-9.927
			c-0.654-1.476-0.837-3.118-0.522-4.702c0.81-1.654,2.365-2.82,4.18-3.135l52.767-9.927c18.919-3.92,31.792-21.535,29.78-40.751
			c-2.134-18.55-17.899-32.514-36.571-32.392h-1.567l-71.053-3.135c-28.212-1.045-52.245,4.702-80.98,18.286l-36.571,16.718
			c-5.11-11.084-16.016-18.354-28.212-18.808H39.956c-17.94,0.827-32.135,15.479-32.392,33.437v152.555
			c0,17.241,15.151,28.212,32.392,28.212h40.751c17.241,0,31.347-10.971,31.347-28.212v-9.927l38.661-7.314
			c11.376-2.014,22.946-2.715,34.482-2.09l107.624,5.224c38.757,1.539,76.714-11.3,106.58-36.049l74.71-62.171
			C489.268,341.518,491.582,319.069,479.336,303.542z M91.156,463.411c0,5.771-4.678,10.449-10.449,10.449H38.912
			c-5.771,0-10.449-4.678-10.449-10.449v-151.51c0-5.771,4.678-10.449,10.449-10.449h41.796c5.771,0,10.449,4.678,10.449,10.449
			V463.411z M460.528,338.546l-74.188,61.649c-25.849,21.594-58.822,32.771-92.473,31.347l-107.624-5.224
			c-12.943-0.466-25.899,0.409-38.661,2.612l-35.527,6.269V321.828l42.841-20.376c21.97-11.221,46.391-16.788,71.053-16.196
			l71.053,3.135h2.09c8.079-0.04,14.866,6.067,15.673,14.106c0.971,8.428-4.727,16.177-13.061,17.763l-52.767,9.927
			c-8.295,1.484-15.328,6.954-18.808,14.629c-3.58,7.704-3.191,16.668,1.045,24.033l5.747,9.927
			c4.956,8.163,13.971,12.971,23.51,12.539l51.2-1.567c21.562-0.597,42.32-8.312,59.037-21.943l67.918-54.857
			c6.857-5.684,16.966-4.995,22.988,1.567l1.045,1.567c5.647,6.561,4.906,16.457-1.654,22.104
			C460.82,338.308,460.675,338.428,460.528,338.546z"/>
		<path style="fill:#224099;" d="M327.303,263.313c-72.712,0.288-131.89-58.423-132.178-131.135
			C194.838,59.467,253.549,0.289,326.261,0.001s131.89,58.423,132.177,131.135c0.001,0.348,0.001,0.695,0,1.043
			C458.438,204.602,399.727,263.313,327.303,263.313L327.303,263.313z M327.303,21.419c-61.17-0.289-110.992,49.066-111.28,110.236
			s49.066,110.992,110.236,111.28c61.17,0.289,110.992-49.066,111.28-110.236c0.001-0.174,0.001-0.347,0.001-0.521
			c0.289-60.881-48.832-110.469-109.713-110.758C327.652,21.42,327.478,21.419,327.303,21.419z"/>
		<path style="fill:#224099;" d="M366.487,102.921h-13.061c-1.214-5.456-3.147-10.726-5.747-15.673h18.808
			c5.771,0,10.449-4.678,10.449-10.449s-4.678-10.449-10.449-10.449H288.12c-5.771,0-10.449,4.678-10.449,10.449
			s4.678,10.449,10.449,10.449h22.465c9.52,0.116,17.822,6.501,20.376,15.673H288.12c-5.771,0-10.449,4.678-10.449,10.449
			c0,5.771,4.678,10.449,10.449,10.449h42.841c-1.045,0-2.09,3.135-4.18,4.702c-4.393,4.038-10.24,6.113-16.196,5.747H288.12
			c-4.243-0.005-8.108,2.436-9.927,6.269c-1.58,4.004-0.543,8.566,2.612,11.494l55.902,52.767c1.929,1.969,4.558,3.095,7.314,3.135
			c2.976-0.204,5.769-1.508,7.837-3.657c3.841-4.204,3.609-10.709-0.522-14.629l-37.094-35.004
			c10.131-0.494,19.758-4.567,27.167-11.494c5.364-5.493,9.465-12.09,12.016-19.331h13.061c5.771,0,10.449-4.678,10.449-10.449
			C376.936,107.6,372.258,102.921,366.487,102.921z"/>
	</g>
</g>
<g>
</g>
<g>
</g>
<g>
</g>
<g>
</g>
<g>
</g>
<g>
</g>
<g>
</g>
<g>
</g>
<g>
</g>
<g>
</g>
<g>
</g>
<g>
</g>
<g>
</g>
<g>
</g>
<g>
</g>
</svg>
