<svg xmlns="http://www.w3.org/2000/svg" xmlns:xlink="http://www.w3.org/1999/xlink" version="1.1" width="256" height="256" viewBox="0 0 256 256" xml:space="preserve">
<desc>Created with Fabric.js 1.7.22</desc>
<defs>
</defs>
<g transform="translate(128 128) scale(0.72 0.72)" style="">
	<g style="stroke: none; stroke-width: 0; stroke-dasharray: none; stroke-linecap: butt; stroke-linejoin: miter; stroke-miterlimit: 10; fill: none; fill-rule: nonzero; opacity: 1;" transform="translate(-175.05 -175.05000000000004) scale(3.89 3.89)" >
	<rect x="6.37" y="45.53" rx="0" ry="0" width="19.84" height="43.49" style="stroke: none; stroke-width: 1; stroke-dasharray: none; stroke-linecap: butt; stroke-linejoin: miter; stroke-miterlimit: 10; fill: rgb(84,111,122); fill-rule: nonzero; opacity: 1;" transform=" matrix(1 0 0 1 0 0) "/>
	<path d="M 38.53 82.619 c 2.446 2.691 8.412 4.354 14.084 4.211 l 22.669 0 c 2.449 0 4.452 -2.003 4.452 -4.452 V 81.49 c 0 -2.449 -2.003 -4.452 -4.452 -4.452 h 3.677 c 2.449 0 4.452 -2.003 4.452 -4.452 v -0.888 c 0 -2.449 -2.003 -4.452 -4.452 -4.452 h -0.193 c 2.449 0 4.452 -2.003 4.452 -4.452 v -0.888 c 0 -2.449 -2.003 -4.452 -4.452 -4.452 h -0.53 c 2.449 0 4.452 -2.003 4.452 -4.452 v -0.888 c 0 -2.449 -2.003 -4.452 -4.452 -4.452 l -16.184 0.03 c 1.825 -17.448 -1.336 -22.643 -7.86 -21.885 c -0.873 0.102 -1.574 0.782 -1.656 1.657 c -0.984 10.473 -7.44 23.788 -14.006 24.168 L 38.53 82.619 z" style="stroke: none; stroke-width: 1; stroke-dasharray: none; stroke-linecap: butt; stroke-linejoin: miter; stroke-miterlimit: 10; fill: rgb(255,211,179); fill-rule: nonzero; opacity: 1;" transform=" matrix(1 0 0 1 0 0) " stroke-linecap="round" />
	<path d="M 35.623 87.113 h -9.405 V 47.44 h 9.405 c 1.605 0 2.907 1.301 2.907 2.907 v 33.859 C 38.53 85.812 37.229 87.113 35.623 87.113 z" style="stroke: none; stroke-width: 1; stroke-dasharray: none; stroke-linecap: butt; stroke-linejoin: miter; stroke-miterlimit: 10; fill: rgb(228,235,239); fill-rule: nonzero; opacity: 1;" transform=" matrix(1 0 0 1 0 0) " stroke-linecap="round" />
	<path d="M 78.237 58.454 h -7.392 c -0.553 0 -1.001 -0.447 -1.001 -1.001 s 0.447 -1.001 1.001 -1.001 h 7.392 c 0.553 0 1.001 0.447 1.001 1.001 S 78.79 58.454 78.237 58.454 z" style="stroke: none; stroke-width: 1; stroke-dasharray: none; stroke-linecap: butt; stroke-linejoin: miter; stroke-miterlimit: 10; fill: rgb(0,0,0); fill-rule: nonzero; opacity: 1;" transform=" matrix(1 0 0 1 0 0) " stroke-linecap="round" />
	<path d="M 78.766 68.246 h -7.922 c -0.553 0 -1.001 -0.447 -1.001 -1.001 c 0 -0.553 0.447 -1.001 1.001 -1.001 h 7.922 c 0.553 0 1.001 0.447 1.001 1.001 C 79.767 67.799 79.319 68.246 78.766 68.246 z" style="stroke: none; stroke-width: 1; stroke-dasharray: none; stroke-linecap: butt; stroke-linejoin: miter; stroke-miterlimit: 10; fill: rgb(0,0,0); fill-rule: nonzero; opacity: 1;" transform=" matrix(1 0 0 1 0 0) " stroke-linecap="round" />
	<path d="M 75.283 78.038 h -4.439 c -0.553 0 -1.001 -0.447 -1.001 -1.001 c 0 -0.553 0.447 -1.001 1.001 -1.001 h 4.439 c 0.553 0 1.001 0.447 1.001 1.001 C 76.283 77.591 75.836 78.038 75.283 78.038 z" style="stroke: none; stroke-width: 1; stroke-dasharray: none; stroke-linecap: butt; stroke-linejoin: miter; stroke-miterlimit: 10; fill: rgb(0,0,0); fill-rule: nonzero; opacity: 1;" transform=" matrix(1 0 0 1 0 0) " stroke-linecap="round" />
	<path d="M 38.53 83.619 c -0.553 0 -1.001 -0.447 -1.001 -1.001 V 51.631 c 0 -0.553 0.448 -1.001 1.001 -1.001 c 0.553 0 1.001 0.447 1.001 1.001 v 30.987 C 39.531 83.172 39.083 83.619 38.53 83.619 z" style="stroke: none; stroke-width: 1; stroke-dasharray: none; stroke-linecap: butt; stroke-linejoin: miter; stroke-miterlimit: 10; fill: rgb(0,0,0); fill-rule: nonzero; opacity: 1;" transform=" matrix(1 0 0 1 0 0) " stroke-linecap="round" />
	<path d="M 35.878 88.114 h -9.659 c -0.553 0 -1.001 -0.447 -1.001 -1.001 V 47.44 c 0 -0.553 0.448 -1.001 1.001 -1.001 h 9.659 c 2.014 0 3.653 1.511 3.653 3.368 v 0.635 c 5.559 -1.664 11.111 -13.495 12.009 -23.072 c 0.125 -1.325 1.191 -2.4 2.537 -2.557 c 2.61 -0.303 4.71 0.306 6.236 1.813 c 2.96 2.926 3.87 9.316 2.846 20.063 l 15.076 -0.028 c 3.008 0 5.455 2.447 5.455 5.453 v 0.888 c 0 1.725 -0.805 3.265 -2.06 4.265 c 1.553 0.962 2.589 2.682 2.589 4.639 v 0.888 c 0 1.795 -0.872 3.389 -2.213 4.383 c 1.451 0.981 2.406 2.641 2.406 4.521 v 0.888 c 0 2.831 -2.169 5.165 -4.932 5.428 c 0.783 0.944 1.255 2.156 1.255 3.476 v 0.888 c 0 3.006 -2.446 5.452 -5.452 5.452 H 52.614 c -5.032 0.124 -10.022 -1.097 -13.083 -3.091 v 0.007 C 39.531 86.603 37.892 88.114 35.878 88.114 z M 27.219 86.113 h 8.659 c 0.895 0 1.652 -0.626 1.652 -1.367 v -2.127 c 0 -0.413 0.254 -0.785 0.64 -0.933 c 0.384 -0.15 0.823 -0.047 1.101 0.26 c 2.171 2.391 7.769 4.031 13.318 3.884 h 22.694 c 1.903 0 3.451 -1.548 3.451 -3.451 V 81.49 c 0 -1.903 -1.548 -3.452 -3.451 -3.452 c -0.553 0 -1.001 -0.447 -1.001 -1.001 c 0 -0.553 0.447 -1.001 1.001 -1.001 h 3.677 c 1.903 0 3.452 -1.548 3.452 -3.451 v -0.888 c 0 -1.903 -1.549 -3.452 -3.452 -3.452 h -0.192 c -0.553 0 -1.001 -0.447 -1.001 -1.001 c 0 -0.553 0.447 -1.001 1.001 -1.001 c 1.903 0 3.451 -1.548 3.451 -3.451 v -0.888 c 0 -1.903 -1.549 -3.452 -3.452 -3.452 h -0.53 c -0.553 0 -1.001 -0.447 -1.001 -1.001 s 0.447 -1.001 1.001 -1.001 c 1.903 0 3.452 -1.548 3.452 -3.451 v -0.888 c 0 -1.903 -1.549 -3.452 -3.452 -3.452 l -16.182 0.03 c -0.001 0 -0.001 0 -0.002 0 c -0.283 0 -0.553 -0.12 -0.743 -0.33 c -0.191 -0.211 -0.282 -0.492 -0.252 -0.775 c 1.11 -10.617 0.406 -17.008 -2.152 -19.538 c -1.086 -1.074 -2.587 -1.482 -4.598 -1.249 c -0.412 0.048 -0.739 0.366 -0.775 0.756 c -0.932 9.924 -7.217 24.625 -14.945 25.073 c -0.277 0.012 -0.544 -0.082 -0.745 -0.271 c -0.2 -0.19 -0.314 -0.452 -0.314 -0.728 v -1.824 c 0 -0.741 -0.757 -1.367 -1.652 -1.367 h -8.659 V 86.113 z" style="stroke: none; stroke-width: 1; stroke-dasharray: none; stroke-linecap: butt; stroke-linejoin: miter; stroke-miterlimit: 10; fill: rgb(0,0,0); fill-rule: nonzero; opacity: 1;" transform=" matrix(1 0 0 1 0 0) " stroke-linecap="round" />
	<path d="M 26.219 90.023 H 6.373 c -0.553 0 -1.001 -0.447 -1.001 -1.001 V 45.531 c 0 -0.553 0.448 -1.001 1.001 -1.001 h 19.845 c 0.553 0 1.001 0.448 1.001 1.001 v 43.492 C 27.219 89.575 26.771 90.023 26.219 90.023 z M 7.374 88.022 h 17.844 V 46.531 H 7.374 V 88.022 z" style="stroke: none; stroke-width: 1; stroke-dasharray: none; stroke-linecap: butt; stroke-linejoin: miter; stroke-miterlimit: 10; fill: rgb(0,0,0); fill-rule: nonzero; opacity: 1;" transform=" matrix(1 0 0 1 0 0) " stroke-linecap="round" />
	<line x1="3.6965000000000003" y1="0" x2="-3.6965000000000003" y2="0" style="stroke: none; stroke-width: 1; stroke-dasharray: none; stroke-linecap: butt; stroke-linejoin: miter; stroke-miterlimit: 10; fill: rgb(0,0,0); fill-rule: nonzero; opacity: 1;" transform=" matrix(1 0 0 1 0 0) "/>
	<line x1="3.961500000000001" y1="0" x2="-3.961500000000001" y2="0" style="stroke: none; stroke-width: 1; stroke-dasharray: none; stroke-linecap: butt; stroke-linejoin: miter; stroke-miterlimit: 10; fill: rgb(0,0,0); fill-rule: nonzero; opacity: 1;" transform=" matrix(1 0 0 1 0 0) "/>
	<line x1="2.2195000000000036" y1="0" x2="-2.2195000000000036" y2="0" style="stroke: none; stroke-width: 1; stroke-dasharray: none; stroke-linecap: butt; stroke-linejoin: miter; stroke-miterlimit: 10; fill: rgb(0,0,0); fill-rule: nonzero; opacity: 1;" transform=" matrix(1 0 0 1 0 0) "/>
	<circle cx="16.3" cy="80.82000000000001" r="2.79" style="stroke: none; stroke-width: 1; stroke-dasharray: none; stroke-linecap: butt; stroke-linejoin: miter; stroke-miterlimit: 10; fill: rgb(63,78,86); fill-rule: nonzero; opacity: 1;" transform="  matrix(1 0 0 1 0 0) "/>
	<path d="M 16.296 84.607 c -2.09 0 -3.791 -1.701 -3.791 -3.791 s 1.701 -3.791 3.791 -3.791 s 3.791 1.701 3.791 3.791 S 18.386 84.607 16.296 84.607 z M 16.296 79.026 c -0.987 0 -1.79 0.803 -1.79 1.79 c 0 0.987 0.803 1.79 1.79 1.79 s 1.79 -0.803 1.79 -1.79 C 18.086 79.829 17.283 79.026 16.296 79.026 z" style="stroke: none; stroke-width: 1; stroke-dasharray: none; stroke-linecap: butt; stroke-linejoin: miter; stroke-miterlimit: 10; fill: rgb(0,0,0); fill-rule: nonzero; opacity: 1;" transform=" matrix(1 0 0 1 0 0) " stroke-linecap="round" />
	<polygon points="75.28,16.78 77.86,22 83.63,22.84 79.45,26.91 80.44,32.65 75.28,29.94 70.13,32.65 71.11,26.91 66.94,22.84 72.7,22 " style="stroke: none; stroke-width: 1; stroke-dasharray: none; stroke-linecap: butt; stroke-linejoin: miter; stroke-miterlimit: 10; fill: rgb(255,194,85); fill-rule: nonzero; opacity: 1;" transform="  matrix(1 0 0 1 0 0) "/>
	<path d="M 80.44 33.651 c -0.159 0 -0.319 -0.038 -0.465 -0.115 l -4.692 -2.466 l -4.692 2.466 c -0.335 0.177 -0.745 0.148 -1.053 -0.076 c -0.308 -0.224 -0.462 -0.603 -0.398 -0.979 l 0.896 -5.224 l -3.796 -3.699 c -0.273 -0.266 -0.37 -0.663 -0.253 -1.026 c 0.118 -0.362 0.431 -0.626 0.808 -0.681 l 5.245 -0.762 l 2.346 -4.752 c 0.336 -0.683 1.458 -0.683 1.794 0 l 2.346 4.752 l 5.244 0.762 c 0.377 0.055 0.69 0.319 0.808 0.681 c 0.117 0.362 0.02 0.76 -0.253 1.025 l -3.795 3.7 l 0.896 5.224 c 0.064 0.375 -0.09 0.755 -0.398 0.979 C 80.854 33.587 80.647 33.651 80.44 33.651 z M 75.283 28.94 c 0.16 0 0.32 0.038 0.465 0.115 l 3.363 1.767 l -0.642 -3.744 c -0.056 -0.324 0.052 -0.656 0.287 -0.885 l 2.72 -2.652 l -3.759 -0.546 c -0.326 -0.047 -0.608 -0.252 -0.753 -0.548 l -1.682 -3.407 l -1.682 3.407 c -0.146 0.296 -0.427 0.5 -0.753 0.548 l -3.759 0.546 l 2.72 2.651 c 0.235 0.23 0.343 0.561 0.287 0.886 l -0.642 3.744 l 3.363 -1.767 C 74.963 28.978 75.123 28.94 75.283 28.94 z" style="stroke: none; stroke-width: 1; stroke-dasharray: none; stroke-linecap: butt; stroke-linejoin: miter; stroke-miterlimit: 10; fill: rgb(0,0,0); fill-rule: nonzero; opacity: 1;" transform=" matrix(1 0 0 1 0 0) " stroke-linecap="round" />
	<polygon points="56.52,0.98 59.09,6.2 64.86,7.04 60.69,11.11 61.67,16.85 56.52,14.14 51.36,16.85 52.34,11.11 48.17,7.04 53.94,6.2 " style="stroke: none; stroke-width: 1; stroke-dasharray: none; stroke-linecap: butt; stroke-linejoin: miter; stroke-miterlimit: 10; fill: rgb(255,194,85); fill-rule: nonzero; opacity: 1;" transform="  matrix(1 0 0 1 0 0) "/>
	<path d="M 61.673 17.849 c -0.159 0 -0.319 -0.038 -0.465 -0.115 l -4.692 -2.466 l -4.69 2.466 c -0.336 0.177 -0.745 0.149 -1.054 -0.076 c -0.308 -0.224 -0.462 -0.603 -0.398 -0.979 l 0.896 -5.223 l -3.796 -3.699 c -0.273 -0.266 -0.37 -0.663 -0.253 -1.026 c 0.118 -0.362 0.431 -0.626 0.808 -0.681 l 5.244 -0.762 l 2.346 -4.752 c 0.336 -0.683 1.458 -0.683 1.794 0 l 2.346 4.752 l 5.245 0.762 c 0.377 0.055 0.69 0.319 0.808 0.681 c 0.117 0.362 0.02 0.76 -0.253 1.026 l -3.796 3.699 l 0.896 5.223 c 0.064 0.375 -0.09 0.755 -0.398 0.979 C 62.088 17.784 61.881 17.849 61.673 17.849 z M 56.517 13.137 c 0.16 0 0.319 0.038 0.465 0.115 l 3.363 1.767 l -0.642 -3.744 c -0.056 -0.324 0.052 -0.656 0.287 -0.886 l 2.72 -2.651 l -3.759 -0.546 c -0.326 -0.047 -0.608 -0.252 -0.753 -0.548 l -1.682 -3.407 l -1.682 3.407 c -0.146 0.296 -0.427 0.5 -0.753 0.548 l -3.758 0.546 l 2.72 2.651 c 0.235 0.23 0.343 0.561 0.287 0.886 l -0.642 3.744 l 3.361 -1.767 C 56.197 13.175 56.356 13.137 56.517 13.137 z" style="stroke: none; stroke-width: 1; stroke-dasharray: none; stroke-linecap: butt; stroke-linejoin: miter; stroke-miterlimit: 10; fill: rgb(0,0,0); fill-rule: nonzero; opacity: 1;" transform=" matrix(1 0 0 1 0 0) " stroke-linecap="round" />
	<polygon points="36.76,16.78 39.34,22 45.11,22.84 40.94,26.91 41.92,32.65 36.76,29.94 31.61,32.65 32.59,26.91 28.42,22.84 34.19,22 " style="stroke: none; stroke-width: 1; stroke-dasharray: none; stroke-linecap: butt; stroke-linejoin: miter; stroke-miterlimit: 10; fill: rgb(255,194,85); fill-rule: nonzero; opacity: 1;" transform="  matrix(1 0 0 1 0 0) "/>
	<path d="M 31.607 33.651 c -0.207 0 -0.414 -0.064 -0.588 -0.191 c -0.308 -0.224 -0.462 -0.603 -0.398 -0.979 l 0.896 -5.224 l -3.795 -3.699 c -0.273 -0.266 -0.371 -0.663 -0.254 -1.026 c 0.118 -0.362 0.431 -0.626 0.808 -0.681 l 5.244 -0.762 l 2.345 -4.752 c 0.338 -0.683 1.457 -0.683 1.795 0 l 2.345 4.752 l 5.244 0.762 c 0.377 0.055 0.69 0.319 0.808 0.681 c 0.118 0.362 0.02 0.76 -0.253 1.026 l -3.795 3.699 l 0.896 5.224 c 0.064 0.375 -0.09 0.755 -0.398 0.979 c -0.308 0.224 -0.717 0.253 -1.054 0.076 l -4.691 -2.466 l -4.691 2.466 C 31.926 33.613 31.766 33.651 31.607 33.651 z M 36.763 28.94 c 0.16 0 0.32 0.038 0.466 0.115 l 3.363 1.767 l -0.642 -3.744 c -0.055 -0.324 0.052 -0.656 0.288 -0.886 l 2.72 -2.651 l -3.759 -0.546 c -0.326 -0.047 -0.608 -0.252 -0.753 -0.548 l -1.682 -3.407 l -1.682 3.407 c -0.146 0.296 -0.427 0.5 -0.753 0.548 l -3.759 0.546 l 2.72 2.651 c 0.236 0.23 0.343 0.561 0.288 0.886 l -0.642 3.744 l 3.362 -1.767 C 36.443 28.978 36.604 28.94 36.763 28.94 z" style="stroke: none; stroke-width: 1; stroke-dasharray: none; stroke-linecap: butt; stroke-linejoin: miter; stroke-miterlimit: 10; fill: rgb(0,0,0); fill-rule: nonzero; opacity: 1;" transform=" matrix(1 0 0 1 0 0) " stroke-linecap="round" />
</g>
</g>
</svg>