<svg xmlns="http://www.w3.org/2000/svg" enable-background="new 0 0 135 135" viewBox="0 0 135 135" id="dormitory"><rect width="128" height="3.16" x="3.5" y="115.568" fill="#7a8490"></rect><rect width="107.357" height="11.45" x="13.821" y="79.171" fill="#963"></rect><rect width="108.899" height="1.625" x="13.051" y="87.55" fill="#aa7544"></rect><rect width="108.899" height="1.625" x="13.051" y="84.083" fill="#aa7544"></rect><rect width="108.899" height="1.625" x="13.051" y="80.617" fill="#aa7544"></rect><rect width="31.11" height="21.54" x="15.83" y="90.618" fill="#d0dbe2"></rect><rect width="31.115" height="21.54" x="88.06" y="90.618" fill="#d0dbe2"></rect><rect width="32.139" height="21.54" x="51.43" y="90.618" fill="#d0dbe2"></rect><rect width="4.49" height="21.49" x="46.94" y="90.618" fill="#dfe8ef"></rect><rect width="1.271" height="21.49" x="45.669" y="90.618" opacity=".08"></rect><rect width="1.271" height="21.49" x="51.43" y="90.618" opacity=".08"></rect><rect width="4.49" height="21.49" x="83.57" y="90.618" fill="#dfe8ef"></rect><rect width="1.271" height="21.49" x="82.299" y="90.618" opacity=".08"></rect><rect width="1.271" height="21.49" x="88.06" y="90.618" opacity=".08"></rect><rect width="103.35" height="2.797" x="15.825" y="90.618" opacity=".08"></rect><rect width="10.174" height="15.247" x="62.413" y="96.911" fill="#44433f"></rect><polygon fill="#fff" points="73.087 112.158 72.087 112.158 72.087 97.411 62.913 97.411 62.913 112.158 61.913 112.158 61.913 96.411 73.087 96.411"></polygon><rect width="6.12" height="10.11" x="53.501" y="96.308" fill="#44433f"></rect><path fill="#fff" d="M59.9956055,106.7932739h-6.8701172V95.9329224h6.8701172V106.7932739z M53.8754883,106.0432739
								h5.3701172v-9.3603516h-5.3701172V106.0432739z"></path><rect width="6.12" height=".75" x="53.5" y="100.988" fill="#fff"></rect><rect width="6.12" height="10.11" x="75.379" y="96.308" fill="#44433f"></rect><path fill="#fff" d="M81.8745117,106.7932739h-6.8701172V95.9329224h6.8701172V106.7932739z M75.7543945,106.0432739
								h5.3701172v-9.3603516h-5.3701172V106.0432739z"></path><rect width="6.12" height=".75" x="75.379" y="100.988" fill="#fff"></rect><rect width="10.174" height="15.247" x="94.091" y="96.911" fill="#44433f"></rect><polygon fill="#fff" points="93.591 112.158 94.591 112.158 94.591 97.411 103.765 97.411 103.765 112.158 104.765 112.158 104.765 96.411 93.591 96.411"></polygon><rect width="6.12" height="10.11" x="107.149" y="96.308" fill="#44433f"></rect><path fill="#fff" d="M106.7738724,95.9329224h6.8701172v10.8603516h-6.8701172V95.9329224z M112.8939896,96.6829224
								h-5.3701172v9.3603516h5.3701172V96.6829224z"></path><rect width="6.12" height=".75" x="107.149" y="100.988" fill="#fff"></rect><rect width="10.174" height="15.247" x="21.856" y="96.911" fill="#44433f"></rect><polygon fill="#fff" points="21.356 112.158 22.356 112.158 22.356 97.411 31.53 97.411 31.53 112.158 32.53 112.158 32.53 96.411 21.356 96.411"></polygon><rect width="6.12" height="10.11" x="34.914" y="96.308" fill="#44433f"></rect><path fill="#fff" d="M34.5392075,95.9329224h6.8701172v10.8603516h-6.8701172V95.9329224z M40.6593246,96.6829224h-5.3701172
								v9.3603516h5.3701172V96.6829224z"></path><rect width="6.12" height=".75" x="34.914" y="100.988" fill="#fff"></rect><rect width="107.357" height="11.45" x="13.821" y="46.186" fill="#963"></rect><rect width="108.899" height="1.625" x="13.051" y="54.565" fill="#aa7544"></rect><rect width="108.899" height="1.625" x="13.051" y="51.099" fill="#aa7544"></rect><rect width="108.899" height="1.625" x="13.051" y="47.632" fill="#aa7544"></rect><rect width="31.115" height="21.54" x="15.825" y="57.633" fill="#d0dbe2"></rect><rect width="31.115" height="21.54" x="88.06" y="57.633" fill="#d0dbe2"></rect><rect width="32.139" height="21.54" x="51.43" y="57.633" fill="#d0dbe2"></rect><rect width="4.49" height="21.49" x="46.94" y="57.633" fill="#dfe8ef"></rect><rect width="1.271" height="21.49" x="45.669" y="57.633" opacity=".08"></rect><rect width="1.271" height="21.49" x="51.43" y="57.633" opacity=".08"></rect><rect width="4.49" height="21.49" x="83.57" y="57.633" fill="#dfe8ef"></rect><rect width="1.271" height="21.49" x="82.299" y="57.633" opacity=".08"></rect><rect width="1.271" height="21.49" x="88.06" y="57.633" opacity=".08"></rect><rect width="103.35" height="2.797" x="15.825" y="57.633" opacity=".08"></rect><rect width="10.174" height="15.247" x="62.413" y="63.927" fill="#44433f"></rect><polygon fill="#fff" points="73.087 79.173 72.087 79.173 72.087 64.427 62.913 64.427 62.913 79.173 61.913 79.173 61.913 63.427 73.087 63.427"></polygon><rect width="6.12" height="10.11" x="53.501" y="63.323" fill="#44433f"></rect><path fill="#fff" d="M59.9956055,73.8085556h-6.8701172V62.9482079h6.8701172V73.8085556z M53.8754883,73.0585556h5.3701172
								v-9.3603477h-5.3701172V73.0585556z"></path><rect width="6.12" height=".75" x="53.5" y="68.003" fill="#fff"></rect><rect width="6.12" height="10.11" x="75.379" y="63.323" fill="#44433f"></rect><path fill="#fff" d="M81.8745117,73.8085556h-6.8701172V62.9482079h6.8701172V73.8085556z M75.7543945,73.0585556h5.3701172
								v-9.3603477h-5.3701172V73.0585556z"></path><rect width="6.12" height=".75" x="75.379" y="68.003" fill="#fff"></rect><rect width="10.174" height="15.247" x="94.091" y="63.927" fill="#44433f"></rect><polygon fill="#fff" points="93.591 79.173 94.591 79.173 94.591 64.427 103.765 64.427 103.765 79.173 104.765 79.173 104.765 63.427 93.591 63.427"></polygon><rect width="6.12" height="10.11" x="107.149" y="63.323" fill="#44433f"></rect><path fill="#fff" d="M106.7738724,62.9482079h6.8701172v10.8603477h-6.8701172V62.9482079z M112.8939896,63.6982079
								h-5.3701172v9.3603477h5.3701172V63.6982079z"></path><rect width="6.12" height=".75" x="107.149" y="68.003" fill="#fff"></rect><rect width="10.174" height="15.247" x="21.856" y="63.927" fill="#44433f"></rect><polygon fill="#fff" points="21.356 79.173 22.356 79.173 22.356 64.427 31.53 64.427 31.53 79.173 32.53 79.173 32.53 63.427 21.356 63.427"></polygon><rect width="6.12" height="10.11" x="34.914" y="63.323" fill="#44433f"></rect><path fill="#fff" d="M34.5392075,62.9482079h6.8701172v10.8603477h-6.8701172V62.9482079z M40.6593246,63.6982079h-5.3701172
								v9.3603477h5.3701172V63.6982079z"></path><rect width="6.12" height=".75" x="34.914" y="68.003" fill="#fff"></rect><rect width="107.357" height="8.379" x="13.821" y="16.272" fill="#963"></rect><g><rect width="108.899" height="1.625" x="13.051" y="21.383" fill="#aa7544"></rect><rect width="108.899" height="1.625" x="13.051" y="17.916" fill="#aa7544"></rect></g><rect width="31.115" height="21.54" x="15.825" y="24.649" fill="#d0dbe2"></rect><rect width="31.115" height="21.54" x="88.06" y="24.649" fill="#d0dbe2"></rect><rect width="32.139" height="21.54" x="51.43" y="24.649" fill="#d0dbe2"></rect><g><rect width="4.49" height="21.49" x="46.94" y="24.649" fill="#dfe8ef"></rect><rect width="1.271" height="21.49" x="45.669" y="24.649" opacity=".08"></rect><rect width="1.271" height="21.49" x="51.43" y="24.649" opacity=".08"></rect><rect width="4.49" height="21.49" x="83.57" y="24.649" fill="#dfe8ef"></rect><rect width="1.271" height="21.49" x="82.299" y="24.649" opacity=".08"></rect><rect width="1.271" height="21.49" x="88.06" y="24.649" opacity=".08"></rect></g><rect width="103.35" height="2.797" x="15.825" y="24.649" opacity=".08"></rect><g><rect width="10.174" height="15.247" x="62.413" y="30.942" fill="#44433f"></rect><polygon fill="#fff" points="73.087 46.189 72.087 46.189 72.087 31.442 62.913 31.442 62.913 46.189 61.913 46.189 61.913 30.442 73.087 30.442"></polygon><rect width="6.12" height="10.11" x="53.501" y="30.338" fill="#44433f"></rect><path fill="#fff" d="M59.9956055,40.8238449h-6.8701172V29.9634953h6.8701172V40.8238449z M53.8754883,40.0738449h5.3701172
								v-9.3603497h-5.3701172V40.0738449z"></path><rect width="6.12" height=".75" x="53.5" y="35.019" fill="#fff"></rect><rect width="6.12" height="10.11" x="75.379" y="30.338" fill="#44433f"></rect><path fill="#fff" d="M81.8745117,40.8238449h-6.8701172V29.9634953h6.8701172V40.8238449z M75.7543945,40.0738449h5.3701172
								v-9.3603497h-5.3701172V40.0738449z"></path><rect width="6.12" height=".75" x="75.379" y="35.019" fill="#fff"></rect></g><g><rect width="10.174" height="15.247" x="94.091" y="30.942" fill="#44433f"></rect><polygon fill="#fff" points="93.591 46.189 94.591 46.189 94.591 31.442 103.765 31.442 103.765 46.189 104.765 46.189 104.765 30.442 93.591 30.442"></polygon><rect width="6.12" height="10.11" x="107.149" y="30.338" fill="#44433f"></rect><path fill="#fff" d="M106.7738724,29.9634953h6.8701172v10.8603497h-6.8701172V29.9634953z M112.8939896,30.7134953
								h-5.3701172v9.3603497h5.3701172V30.7134953z"></path><rect width="6.12" height=".75" x="107.149" y="35.019" fill="#fff"></rect></g><g><rect width="10.174" height="15.247" x="21.856" y="30.942" fill="#44433f"></rect><polygon fill="#fff" points="21.356 46.189 22.356 46.189 22.356 31.442 31.53 31.442 31.53 46.189 32.53 46.189 32.53 30.442 21.356 30.442"></polygon><rect width="6.12" height="10.11" x="34.914" y="30.338" fill="#44433f"></rect><path fill="#fff" d="M34.5392075,29.9634953h6.8701172v10.8603497h-6.8701172V29.9634953z M40.6593246,30.7134953h-5.3701172
								v9.3603497h5.3701172V30.7134953z"></path><rect width="6.12" height=".75" x="34.914" y="35.019" fill="#fff"></rect></g><polygon points="46.94 90.618 46.94 112.158 35.36 112.158 15.83 92.628 15.83 90.618" opacity=".08"></polygon><polygon points="119.172 90.618 119.172 112.158 107.592 112.158 88.062 92.628 88.062 90.618" opacity=".08"></polygon><polygon points="83.57 90.618 83.57 112.158 70.96 112.158 51.43 92.628 51.43 90.618" opacity=".08"></polygon><polygon points="46.94 57.633 46.94 79.173 35.36 79.173 15.83 59.643 15.83 57.633" opacity=".08"></polygon><polygon points="119.172 57.633 119.172 79.173 107.592 79.173 88.062 59.643 88.062 57.633" opacity=".08"></polygon><polygon points="83.57 57.633 83.57 79.173 70.96 79.173 51.43 59.643 51.43 57.633" opacity=".08"></polygon><polygon points="46.94 24.624 46.94 46.164 35.36 46.164 15.83 26.633 15.83 24.624" opacity=".08"></polygon><polygon points="119.172 24.624 119.172 46.164 107.592 46.164 88.062 26.633 88.062 24.624" opacity=".08"></polygon><polygon points="83.57 24.624 83.57 46.164 70.96 46.164 51.43 26.633 51.43 24.624" opacity=".08"></polygon><rect width="108.13" height="3.41" x="13.435" y="112.158" fill="#dfe8ef"></rect></svg>