<?xml version="1.0" encoding="UTF-8"?>
<!DOCTYPE svg PUBLIC "-//W3C//DTD SVG 1.1//EN" "http://www.w3.org/Graphics/SVG/1.1/DTD/svg11.dtd">
<svg xmlns="http://www.w3.org/2000/svg" version="1.1" width="512px" height="512px" style="shape-rendering:geometricPrecision; text-rendering:geometricPrecision; image-rendering:optimizeQuality; fill-rule:evenodd; clip-rule:evenodd" xmlns:xlink="http://www.w3.org/1999/xlink">
<g><path style="opacity:0.943" fill="#010102" d="M 501.5,233.5 C 499.097,233.607 497.264,232.607 496,230.5C 495.667,174.167 495.333,117.833 495,61.5C 493.069,55.9022 489.236,52.4022 483.5,51C 331.167,50.3333 178.833,50.3333 26.5,51C 21.3074,52.8592 17.8074,56.3592 16,61.5C 15.3333,158.5 15.3333,255.5 16,352.5C 16.9572,358.127 20.1239,361.96 25.5,364C 178.5,364.667 331.5,364.667 484.5,364C 490.447,362.387 493.947,358.553 495,352.5C 495.333,323.833 495.667,295.167 496,266.5C 497.087,264.186 498.921,262.852 501.5,262.5C 504.212,263.047 505.712,264.713 506,267.5C 506.667,295.167 506.667,322.833 506,350.5C 504.76,364.407 497.26,372.574 483.5,375C 420.5,375.333 357.5,375.667 294.5,376C 299.711,392.676 304.377,409.509 308.5,426.5C 316.507,426.334 324.507,426.5 332.5,427C 344.982,428.481 352.816,435.314 356,447.5C 356.667,454.167 356.667,460.833 356,467.5C 355.626,468.416 355.126,469.25 354.5,470C 309.833,470.667 265.167,470.667 220.5,470C 219.418,468.67 218.751,467.17 218.5,465.5C 219.133,462.866 220.8,461.2 223.5,460.5C 264.5,460.5 305.5,460.5 346.5,460.5C 346.815,456.629 346.482,452.962 345.5,449.5C 344.092,443.591 340.426,439.757 334.5,438C 281.5,437.333 228.5,437.333 175.5,438C 166.224,442.622 162.557,450.122 164.5,460.5C 171.841,460.334 179.174,460.5 186.5,461C 187.781,462.409 188.781,463.909 189.5,465.5C 189.249,467.17 188.582,468.67 187.5,470C 177.167,470.667 166.833,470.667 156.5,470C 155.874,469.25 155.374,468.416 155,467.5C 154.137,459.436 154.47,451.436 156,443.5C 160.126,433.371 167.626,427.871 178.5,427C 186.493,426.5 194.493,426.334 202.5,426.5C 206.623,409.509 211.289,392.676 216.5,376C 153.5,375.667 90.5,375.333 27.5,375C 13.7402,372.574 6.24022,364.407 5,350.5C 4.33333,255.167 4.33333,159.833 5,64.5C 6.04348,52.5574 12.2101,44.7241 23.5,41C 179.222,40.0044 334.889,40.3378 490.5,42C 500.419,46.6045 505.586,54.4378 506,65.5C 506.667,119.833 506.667,174.167 506,228.5C 505.688,231.309 504.188,232.976 501.5,233.5 Z"/></g>
<g><path style="opacity:1" fill="#70bfe6" d="M 501.5,233.5 C 501.5,236.5 501.5,239.5 501.5,242.5C 495.119,244.529 494.119,248.029 498.5,253C 499.448,253.483 500.448,253.649 501.5,253.5C 501.5,256.5 501.5,259.5 501.5,262.5C 498.921,262.852 497.087,264.186 496,266.5C 495.667,295.167 495.333,323.833 495,352.5C 493.947,358.553 490.447,362.387 484.5,364C 331.5,364.667 178.5,364.667 25.5,364C 20.1239,361.96 16.9572,358.127 16,352.5C 15.3333,255.5 15.3333,158.5 16,61.5C 17.8074,56.3592 21.3074,52.8592 26.5,51C 178.833,50.3333 331.167,50.3333 483.5,51C 489.236,52.4022 493.069,55.9022 495,61.5C 495.333,117.833 495.667,174.167 496,230.5C 497.264,232.607 499.097,233.607 501.5,233.5 Z"/></g>
<g><path style="opacity:1" fill="#080808" d="M 42.5,172.5 C 44.371,172.859 45.871,173.859 47,175.5C 47.5,227.832 47.6667,280.166 47.5,332.5C 186.167,332.5 324.833,332.5 463.5,332.5C 463.5,249.167 463.5,165.833 463.5,82.5C 324.833,82.5 186.167,82.5 47.5,82.5C 47.6666,101.503 47.4999,120.503 47,139.5C 45.871,141.141 44.371,142.141 42.5,142.5C 40.4184,142.376 38.9184,141.376 38,139.5C 37.3333,117.833 37.3333,96.1667 38,74.5C 38.5,74 39,73.5 39.5,73C 183.167,72.3333 326.833,72.3333 470.5,73C 471.416,73.3742 472.25,73.8742 473,74.5C 473.667,163.167 473.667,251.833 473,340.5C 472.5,341 472,341.5 471.5,342C 327.5,342.667 183.5,342.667 39.5,342C 39,341.5 38.5,341 38,340.5C 37.3333,285.167 37.3333,229.833 38,174.5C 39.1096,172.963 40.6096,172.297 42.5,172.5 Z"/></g>
<g><path style="opacity:1" fill="#eeeeee" d="M 42.5,172.5 C 42.5,169.167 42.5,165.833 42.5,162.5C 46.2644,161.577 47.7644,159.244 47,155.5C 45.871,153.859 44.371,152.859 42.5,152.5C 42.5,149.167 42.5,145.833 42.5,142.5C 44.371,142.141 45.871,141.141 47,139.5C 47.4999,120.503 47.6666,101.503 47.5,82.5C 186.167,82.5 324.833,82.5 463.5,82.5C 463.5,165.833 463.5,249.167 463.5,332.5C 324.833,332.5 186.167,332.5 47.5,332.5C 47.6667,280.166 47.5,227.832 47,175.5C 45.871,173.859 44.371,172.859 42.5,172.5 Z"/></g>
<g><path style="opacity:1" fill="#fefefe" d="M 448.5,91.5 C 450.936,91.317 453.103,91.9837 455,93.5C 455.667,170.167 455.667,246.833 455,323.5C 454.167,324.333 453.333,325.167 452.5,326C 332.167,326.667 211.833,326.667 91.5,326C 88.0221,323.294 87.6888,320.294 90.5,317C 208.833,316.5 327.166,316.333 445.5,316.5C 445.333,242.499 445.5,168.499 446,94.5C 447.045,93.6266 447.878,92.6266 448.5,91.5 Z"/></g>
<g><path style="opacity:1" fill="#060504" d="M 185.5,248.5 C 185.667,235.829 185.5,223.162 185,210.5C 182.167,201 176,194.833 166.5,192C 148.833,191.333 131.167,191.333 113.5,192C 105,195.167 99.1667,201 96,209.5C 95.5001,222.496 95.3334,235.496 95.5,248.5C 93.7049,253.695 90.5382,254.695 86,251.5C 85.3333,236.833 85.3333,222.167 86,207.5C 91.3311,192.501 101.831,183.667 117.5,181C 113.467,176.249 110.967,170.749 110,164.5C 109.333,150.5 109.333,136.5 110,122.5C 111.833,118 115,114.833 119.5,113C 131.167,112.667 142.833,112.333 154.5,112C 159.834,109.082 165.334,106.582 171,104.5C 173.881,105.043 175.881,106.709 177,109.5C 181.267,121.424 179.6,132.424 172,142.5C 171.667,150.5 171.333,158.5 171,166.5C 169.678,171.977 167.178,176.811 163.5,181C 180.029,183.863 190.529,193.363 195,209.5C 195.667,223.167 195.667,236.833 195,250.5C 190.793,254.823 187.626,254.157 185.5,248.5 Z"/></g>
<g><path style="opacity:1" fill="#050504" d="M 315.5,108.5 C 365.202,106.772 400.035,128.439 420,173.5C 432.775,215.904 423.275,252.404 391.5,283C 355.324,310.496 316.99,313.829 276.5,293C 238.355,267.613 222.855,232.113 230,186.5C 242.173,142.489 270.673,116.489 315.5,108.5 Z"/></g>
<g><path style="opacity:1" fill="#7a7978" d="M 167.5,116.5 C 168.117,116.611 168.617,116.944 169,117.5C 169.937,124.253 168.437,130.42 164.5,136C 149.504,136.5 134.504,136.667 119.5,136.5C 119.334,132.486 119.501,128.486 120,124.5C 120.5,124 121,123.5 121.5,123C 132.833,122.667 144.167,122.333 155.5,122C 159.71,120.391 163.71,118.558 167.5,116.5 Z"/></g>
<g><path style="opacity:1" fill="#f95c3c" d="M 315.5,118.5 C 335.763,116.978 354.763,121.145 372.5,131C 377.292,133.961 381.625,137.461 385.5,141.5C 366.847,160.653 348.014,179.653 329,198.5C 318.504,173.684 308.004,148.85 297.5,124C 303.389,121.532 309.389,119.699 315.5,118.5 Z"/></g>
<g><path style="opacity:1" fill="#7c7a78" d="M 287.5,127.5 C 299.385,153.787 310.718,180.453 321.5,207.5C 308.923,233.654 296.089,259.654 283,285.5C 245.988,261.16 231.988,227.16 241,183.5C 249.133,158.549 264.633,139.882 287.5,127.5 Z"/></g>
<g><path style="opacity:1" fill="#fcb39d" d="M 119.5,146.5 C 133.5,146.5 147.5,146.5 161.5,146.5C 161.666,152.842 161.5,159.175 161,165.5C 155.913,178.96 146.413,183.794 132.5,180C 125.321,176.817 121.154,171.317 120,163.5C 119.501,157.843 119.334,152.176 119.5,146.5 Z"/></g>
<g><path style="opacity:1" fill="#70bfe5" d="M 392.5,148.5 C 403.098,158.368 409.432,170.368 411.5,184.5C 390.778,188.678 370.112,193.178 349.5,198C 347.5,198.667 345.5,198.667 343.5,198C 360.035,181.632 376.368,165.132 392.5,148.5 Z"/></g>
<g><path style="opacity:1" fill="#0d0f10" d="M 42.5,152.5 C 44.371,152.859 45.871,153.859 47,155.5C 47.7644,159.244 46.2644,161.577 42.5,162.5C 39.2826,162.115 37.616,160.281 37.5,157C 37.7485,153.918 39.4151,152.418 42.5,152.5 Z"/></g>
<g><path style="opacity:1" fill="#fb5c3d" d="M 185.5,248.5 C 155.5,248.5 125.5,248.5 95.5,248.5C 95.3334,235.496 95.5001,222.496 96,209.5C 99.1667,201 105,195.167 113.5,192C 131.167,191.333 148.833,191.333 166.5,192C 176,194.833 182.167,201 185,210.5C 185.5,223.162 185.667,235.829 185.5,248.5 Z"/></g>
<g><path style="opacity:1" fill="#edbe1f" d="M 409.5,194.5 C 411.5,194.5 413.5,194.5 415.5,194.5C 418.881,234.405 403.715,264.738 370,285.5C 357.104,261.04 345.271,236.04 334.5,210.5C 359.846,206.166 384.846,200.833 409.5,194.5 Z"/></g>
<g><path style="opacity:1" fill="#12bc6b" d="M 326.5,219.5 C 337.93,242.863 349.264,266.363 360.5,290C 343.658,296.43 326.324,298.096 308.5,295C 302.843,294.059 297.509,292.226 292.5,289.5C 303.847,266.14 315.18,242.807 326.5,219.5 Z"/></g>
<g><path style="opacity:0.883" fill="#040708" d="M 501.5,242.5 C 505.738,244.389 506.905,247.389 505,251.5C 504.184,252.823 503.017,253.489 501.5,253.5C 500.448,253.649 499.448,253.483 498.5,253C 494.119,248.029 495.119,244.529 501.5,242.5 Z"/></g>
<g><path style="opacity:1" fill="#090909" d="M 87.5,268.5 C 122.502,268.333 157.502,268.5 192.5,269C 196.482,271.952 196.482,274.952 192.5,278C 157.833,278.667 123.167,278.667 88.5,278C 84.86,275.302 84.5267,272.135 87.5,268.5 Z"/></g>
<g><path style="opacity:1" fill="#090909" d="M 87.5,291.5 C 122.502,291.333 157.502,291.5 192.5,292C 196.482,294.952 196.482,297.952 192.5,301C 157.833,301.667 123.167,301.667 88.5,301C 84.86,298.302 84.5267,295.135 87.5,291.5 Z"/></g>
<g><path style="opacity:1" fill="#49a1c3" d="M 287.5,388.5 C 266.167,387.167 244.833,387.167 223.5,388.5C 224.533,383.901 225.867,379.401 227.5,375C 246.167,374.333 264.833,374.333 283.5,375C 285.133,379.401 286.467,383.901 287.5,388.5 Z"/></g>
<g><path style="opacity:1" fill="#70bfe6" d="M 287.5,388.5 C 291.15,401.123 294.817,413.79 298.5,426.5C 269.833,427.833 241.167,427.833 212.5,426.5C 216.183,413.79 219.85,401.123 223.5,388.5C 244.833,387.167 266.167,387.167 287.5,388.5 Z"/></g>
<g><path style="opacity:1" fill="#71c1e8" d="M 345.5,449.5 C 345.5,452.833 345.5,456.167 345.5,459.5C 304.663,459.168 263.997,459.501 223.5,460.5C 220.8,461.2 219.133,462.866 218.5,465.5C 215.5,465.5 212.5,465.5 209.5,465.5C 208.444,461.297 205.778,459.797 201.5,461C 200.219,462.409 199.219,463.909 198.5,465.5C 195.5,465.5 192.5,465.5 189.5,465.5C 188.781,463.909 187.781,462.409 186.5,461C 179.174,460.5 171.841,460.334 164.5,460.5C 162.557,450.122 166.224,442.622 175.5,438C 228.5,437.333 281.5,437.333 334.5,438C 340.426,439.757 344.092,443.591 345.5,449.5 Z"/></g>
<g><path style="opacity:1" fill="#5fa1c2" d="M 345.5,449.5 C 346.482,452.962 346.815,456.629 346.5,460.5C 305.5,460.5 264.5,460.5 223.5,460.5C 263.997,459.501 304.663,459.168 345.5,459.5C 345.5,456.167 345.5,452.833 345.5,449.5 Z"/></g>
<g><path style="opacity:0.884" fill="#020304" d="M 209.5,465.5 C 208.382,470.254 205.382,471.754 200.5,470C 199.418,468.67 198.751,467.17 198.5,465.5C 199.219,463.909 200.219,462.409 201.5,461C 205.778,459.797 208.444,461.297 209.5,465.5 Z"/></g>
</svg>
