<svg id="Layer_5" enable-background="new 0 0 64 64" height="512" viewBox="0 0 64 64" width="512" xmlns="http://www.w3.org/2000/svg"><g><g><g><path d="m12 56c-.83 0-1.58.34-2.12.88s-.88 1.29-.88 2.12v-37h46v34h-4-4z" fill="#dfb28b"/></g><g><path d="m55 2v20h-46v-17c0-1.66 1.34-3 3-3z" fill="#d3a06c"/></g><g><path d="m51 56v6h-39c-1.66 0-3-1.34-3-3 0-.83.34-1.58.88-2.12s1.29-.88 2.12-.88h35z" fill="#e6e9ed"/></g><g><path d="m16.86 31.26c.09.23.14.48.14.74 0 1.1-.9 2-2 2s-2-.9-2-2 .9-2 2-2c.84 0 1.56.52 1.86 1.26z" fill="#e6e9ed"/></g><g><path d="m25 26c1.1 0 2 .9 2 2 0 .32-.07.62-.21.89-.33.66-1.01 1.11-1.79 1.11-.84 0-1.56-.52-1.86-1.26-.09-.23-.14-.48-.14-.74 0-1.1.9-2 2-2z" fill="#e6e9ed"/></g><g><path d="m38.79 33.11c.14.27.21.57.21.89 0 1.1-.9 2-2 2s-2-.9-2-2c0-.32.07-.62.21-.89.33-.66 1.01-1.11 1.79-1.11s1.46.45 1.79 1.11z" fill="#e6e9ed"/></g><g><circle cx="49" cy="28" fill="#e6e9ed" r="2"/></g><g><path d="m27.78 39.76c.77 1.23 1.22 2.68 1.22 4.24 0 4.42-3.58 8-8 8v-8z" fill="#fcd770"/></g><g><path d="m21 44v8c-4.42 0-8-3.58-8-8 0-1.56.45-3.01 1.22-4.24z" fill="#b4dd7f"/></g><g><path d="m27.78 39.76-6.78 4.24-6.78-4.24c1.41-2.26 3.92-3.76 6.78-3.76s5.37 1.5 6.78 3.76z" fill="#ff826e"/></g></g><g><path d="m16 10.848 2.307 6.152h2.693v-10h-2v6.152l-2.307-6.152h-2.693v10h2z"/><path d="m29 15h-4v-2h4v-2h-4v-2h4v-2h-6v10h6z"/><path d="m33.648 17c1.258 0 2.35-.896 2.597-2.129l.255-1.271.254 1.271c.247 1.233 1.34 2.129 2.598 2.129 1.46 0 2.648-1.188 2.648-2.648v-7.352h-2v7.352c0 .357-.291.648-.648.648-.308 0-.576-.22-.636-.521l-.896-4.479h-2.64l-.896 4.479c-.06.301-.327.521-.636.521-.357 0-.648-.291-.648-.648v-7.352h-2v7.352c0 1.46 1.188 2.648 2.648 2.648z"/><path d="m50 14c0-1.654-1.346-3-3-3-.551 0-1-.448-1-1s.449-1 1-1h1v1h2v-3h-3c-1.654 0-3 1.346-3 3s1.346 3 3 3c.551 0 1 .448 1 1s-.449 1-1 1h-1v-1h-2v3h3c1.654 0 3-1.346 3-3z"/><path d="m56 1h-44c-2.206 0-4 1.794-4 4v54c0 2.206 1.794 4 4 4h40v-6h4zm-44 2h42v18h-44v-16c0-1.103.897-2 2-2zm38 58h-38c-1.103 0-2-.897-2-2s.897-2 2-2h35 3zm2-6h-5-35c-.732 0-1.409.212-2 .556v-32.556h44v32z"/><path d="m21 35c-4.962 0-9 4.037-9 9s4.038 9 9 9 9-4.037 9-9-4.038-9-9-9zm0 2c2.139 0 4.054.967 5.339 2.484l-5.339 3.336-5.339-3.336c1.285-1.517 3.2-2.484 5.339-2.484zm-7 7c0-1.004.217-1.958.599-2.822l5.401 3.377v6.366c-3.387-.489-6-3.402-6-6.921zm8 6.92v-6.366l5.401-3.376c.382.864.599 1.818.599 2.822 0 3.519-2.613 6.432-6 6.92z"/><path d="m49 25c-1.654 0-3 1.346-3 3 0 .124.022.243.037.363l-6.96 3.48c-.54-.519-1.27-.843-2.077-.843s-1.537.324-2.076.843l-6.96-3.48c.014-.12.036-.239.036-.363 0-1.654-1.346-3-3-3s-3 1.346-3 3c0 .04.01.078.012.118l-4.771 1.909c-.55-.625-1.346-1.027-2.241-1.027-1.654 0-3 1.346-3 3s1.346 3 3 3 3-1.346 3-3c0-.04-.01-.078-.012-.118l4.771-1.909c.55.625 1.346 1.027 2.241 1.027.807 0 1.537-.324 2.077-.844l6.96 3.48c-.015.121-.037.239-.037.364 0 1.654 1.346 3 3 3s3-1.346 3-3c0-.124-.022-.243-.037-.363l6.96-3.48c.54.519 1.27.843 2.077.843 1.654 0 3-1.346 3-3s-1.346-3-3-3zm-34 8c-.551 0-1-.448-1-1s.449-1 1-1 1 .448 1 1-.449 1-1 1zm10-4c-.551 0-1-.448-1-1s.449-1 1-1 1 .448 1 1-.449 1-1 1zm12 6c-.551 0-1-.448-1-1s.449-1 1-1 1 .448 1 1-.449 1-1 1zm12-6c-.551 0-1-.448-1-1s.449-1 1-1 1 .448 1 1-.449 1-1 1z"/><path d="m32 39h2v2h-2z"/><path d="m36 39h16v2h-16z"/><path d="m32 43h20v2h-20z"/><path d="m32 47h4v2h-4z"/><path d="m38 47h14v2h-14z"/><path d="m32 51h20v2h-20z"/></g></g></svg>