<svg id="Layer_1" enable-background="new 0 0 512 512" height="512" viewBox="0 0 512 512" width="512" xmlns="http://www.w3.org/2000/svg"><g><g><path d="m487.933 40.633c0-18.299-14.834-33.133-33.133-33.133h-198.8c-18.299 0-33.133 14.834-33.133 33.133v430.733c0 18.299 14.834 33.133 33.133 33.133h198.8c18.299 0 33.133-14.834 33.133-33.134z" fill="#5b7fa0"/><path d="m487.933 40.633c0-18.299-14.834-33.133-33.133-33.133h-23c18.299 0 33.133 14.834 33.133 33.133l.001 430.733c0 18.299-14.834 33.134-33.134 33.134h23c18.299 0 33.133-14.835 33.133-33.134z" fill="#4a6f99"/><path d="m222.867 454.801h265.067v-397.598h-52.864c-3.138 0-6.006 1.773-7.409 4.579l-3.704 7.408c-1.403 2.806-4.271 4.579-7.409 4.579h-122.295c-3.138 0-6.006-1.773-7.409-4.579l-3.704-7.409c-1.403-2.806-4.271-4.579-7.409-4.579h-52.864z" fill="#77dfff"/><path d="m487.933 68.723v-11.521h-23l.001 397.599h22.999z" fill="#69cdff"/><g><g><path d="m438.233 355.4v36.133h-182.232v-36.133c0-36.598 29.668-66.267 66.267-66.267h49.699c36.598 0 66.266 29.669 66.266 66.267z" fill="#368df6"/><path d="m371.967 289.133h-23c36.598 0 66.267 29.669 66.267 66.267v36.133h23v-36.133c-.001-36.598-29.669-66.267-66.267-66.267z" fill="#336fe7"/><path d="m363.683 156.6c18.299 0 33.133 14.834 33.133 33.133v49.7c0 27.449-22.251 49.7-49.7 49.7s-49.7-22.251-49.7-49.7c0-3.187 0-49.7 0-49.7 0-18.299 14.834-33.133 33.133-33.133z" fill="#ffc2a3"/><path d="m396.817 189.733c0-18.299-14.834-33.133-33.133-33.133h-23c18.299 0 33.133 14.834 33.133 33.133v49.7c0 23.488-16.299 43.157-38.2 48.348 3.693.875 7.54 1.352 11.5 1.352 27.449 0 49.7-22.251 49.7-49.7 0-3.187 0-49.7 0-49.7z" fill="#ffb294"/><path d="m322.267 289.133 18.45 24.6c3.2 4.267 9.6 4.267 12.8 0l18.45-24.6z" fill="#e9efff"/><path d="m363.683 156.6h-33.133c-18.299 0-33.133 14.834-33.133 33.133v24.85h99.4c0-12.439 0-24.85 0-24.85 0-18.299-14.835-33.133-33.134-33.133z" fill="#ffc55e"/><path d="m373.817 189.733v24.85h23c0-2.333 0-24.85 0-24.85 0-18.299-14.834-33.133-33.133-33.133h-23c18.298 0 33.133 14.834 33.133 33.133z" fill="#ffa438"/></g><g><path d="m222.867 388.533h265.066v66.269h-265.066z" fill="#bec8f7"/><path d="m464.933 388.533h23v66.267h-23z" fill="#a2b6f4"/><path d="m222.867 388.533h66.267v66.268h-66.267z" fill="#ff6c6c"/></g></g><g><path d="m239.433 106.9c9.15 0 16.567 7.417 16.567 16.567v132.533c0 9.15-7.417 16.567-16.567 16.567h-41.416c-4.575 0-8.283 3.709-8.283 8.283v13.136c0 7.38-8.922 11.075-14.141 5.857l-24.85-24.85c-1.553-1.553-3.66-2.426-5.857-2.426h-104.253c-9.15 0-16.567-7.417-16.567-16.567v-132.534c0-9.149 7.417-16.567 16.567-16.567h198.8z" fill="#89e56a"/></g><g><g fill="#57cf97"><path d="m166.733 280.85v10.134l8.859 8.859c5.218 5.218 14.141 1.522 14.141-5.857v-13.136c0-4.575 3.708-8.283 8.283-8.283h-23c-4.575-.001-8.283 3.708-8.283 8.283z"/><path d="m239.433 106.9h-23c9.15 0 16.567 7.417 16.567 16.567v132.533c0 9.15-7.417 16.567-16.567 16.567h23c9.15 0 16.567-7.417 16.567-16.567v-132.534c-.001-9.149-7.418-16.566-16.567-16.566z"/></g></g></g><g><path d="m495.433 148.098c0-4.143-3.358-7.5-7.5-7.5s-7.5 3.357-7.5 7.5l.001 232.937h-34.7v-25.635c0-36.417-26.534-66.736-61.28-72.688 12.151-10.497 19.863-26 19.863-43.279v-49.7c0-22.405-18.228-40.634-40.634-40.634h-33.133c-22.405 0-40.633 18.229-40.633 40.634v49.7c0 17.279 7.712 32.782 19.863 43.279-34.746 5.952-61.28 36.271-61.28 72.688v25.634h-18.133v-100.968h9.066c13.271 0 24.067-10.796 24.067-24.066v-132.534c0-13.271-10.796-24.066-24.067-24.066h-9.066v-34.699h45.364c.299 0 .567.166.701.433l3.705 7.41c2.691 5.382 8.1 8.725 14.117 8.725h122.295c6.018 0 11.427-3.344 14.117-8.725l3.705-7.408c.134-.267.402-.434.701-.434h45.363v53.396c0 4.142 3.358 7.5 7.5 7.5s7.5-3.358 7.5-7.5v-77.465c-.002-22.405-18.231-40.633-40.635-40.633h-198.799c-22.406 0-40.634 18.229-40.634 40.634v58.766h-174.734c-13.271 0-24.067 10.796-24.067 24.066v132.534c0 13.271 10.796 24.066 24.067 24.066h26.367c4.142 0 7.5-3.357 7.5-7.5s-3.358-7.5-7.5-7.5h-26.367c-5 0-9.067-4.067-9.067-9.066v-132.534c0-4.999 4.067-9.066 9.067-9.066h198.8c5 0 9.067 4.067 9.067 9.066v132.534c0 4.999-4.067 9.066-9.067 9.066h-41.416c-8.703 0-15.783 7.08-15.783 15.783v13.136c0 .196 0 .523-.484.725-.484.199-.715-.031-.854-.171l-24.85-24.85c-2.981-2.982-6.945-4.623-11.161-4.623h-47.834c-4.142 0-7.5 3.357-7.5 7.5s3.358 7.5 7.5 7.5h47.835c.209 0 .406.082.554.23l24.85 24.849c3.027 3.027 7.045 4.632 11.145 4.632 2.035 0 4.092-.396 6.056-1.21 5.919-2.451 9.744-8.175 9.744-14.582v-13.135c0-.432.352-.783.783-.783h17.351v108.458c0 .003-.001.006-.001.006 0 .007.001.01.001.01v82.826c0 22.405 18.228 40.634 40.634 40.634h198.8c22.406 0 40.634-18.228 40.634-40.634zm-239.432-133.098h198.799c14.134 0 25.633 11.499 25.634 25.633v9.069h-45.364c-6.017 0-11.426 3.343-14.117 8.725l-3.705 7.409c-.133.267-.402.433-.7.433h-122.295c-.299 0-.567-.166-.701-.433l-3.705-7.41c-2.691-5.382-8.1-8.725-14.117-8.725h-45.364v-9.067c.001-14.135 11.5-25.634 25.635-25.634zm224.433 432.301h-183.801v-51.267h141.601 42.2zm-123.467-150.667-9.85 13.133-9.85-13.133zm73.767 58.766v25.634h-76.117v-56.267l21.006-28.008c30.706 1.896 55.111 27.466 55.111 58.641zm-100.184-191.3h33.133c14.135 0 25.634 11.499 25.634 25.634v17.35h-51.267v-9.066c0-4.143-3.358-7.5-7.5-7.5s-7.5 3.357-7.5 7.5v9.066h-18.133v-17.35c0-14.135 11.499-25.634 25.633-25.634zm-25.633 75.334v-17.351h84.4v17.351c0 23.27-18.931 42.2-42.2 42.2s-42.2-18.931-42.2-42.2zm-41.417 115.966c0-31.175 24.405-56.746 55.111-58.641l21.006 28.007v56.268h-76.117zm-7.5 40.634h25.633v51.267h-51.266v-51.267zm198.801 100.966h-198.8c-14.135 0-25.634-11.499-25.634-25.634v-9.065h250.067v9.065c0 14.135-11.499 25.634-25.633 25.634z"/><path d="m313.984 48.133h49.701c4.142 0 7.5-3.357 7.5-7.5s-3.358-7.5-7.5-7.5h-49.701c-4.142 0-7.5 3.357-7.5 7.5s3.358 7.5 7.5 7.5z"/><path d="m388.534 48.133h8.284c4.142 0 7.5-3.357 7.5-7.5s-3.358-7.5-7.5-7.5h-8.284c-4.142 0-7.5 3.357-7.5 7.5s3.358 7.5 7.5 7.5z"/><path d="m98.616 230.366c.528 0 1.061-.056 1.588-.17 2.492-.54 4.539-2.309 5.435-4.696l23.025-61.4h77.636c4.142 0 7.5-3.357 7.5-7.5s-3.358-7.5-7.5-7.5h-82.833c-3.126 0-5.925 1.939-7.022 4.866l-20.76 55.361-8.331-8.331c-2.929-2.928-7.678-2.929-10.606.001-2.929 2.929-2.929 7.677 0 10.606l16.567 16.566c1.419 1.422 3.333 2.197 5.301 2.197z"/><path d="m186.753 184.43c-2.929-2.928-7.678-2.928-10.606 0l-11.263 11.263-11.264-11.263c-2.929-2.928-7.678-2.928-10.606 0-2.929 2.93-2.929 7.678 0 10.607l11.263 11.263-11.263 11.263c-2.929 2.93-2.929 7.678 0 10.607 1.464 1.464 3.384 2.196 5.303 2.196s3.839-.732 5.303-2.196l11.264-11.263 11.263 11.263c1.464 1.464 3.384 2.196 5.303 2.196s3.839-.732 5.303-2.196c2.929-2.93 2.929-7.678 0-10.607l-11.263-11.263 11.263-11.263c2.929-2.93 2.929-7.678 0-10.607z"/><path d="m251.858 429.167h8.283c4.142 0 7.5-3.357 7.5-7.5s-3.358-7.5-7.5-7.5h-8.283c-4.142 0-7.5 3.357-7.5 7.5s3.358 7.5 7.5 7.5z"/><path d="m314.767 421.667c0 4.143 3.358 7.5 7.5 7.5h132.534c4.142 0 7.5-3.357 7.5-7.5s-3.358-7.5-7.5-7.5h-132.534c-4.142 0-7.5 3.357-7.5 7.5z"/></g></g></svg>