<svg xmlns="http://www.w3.org/2000/svg" xmlns:xlink="http://www.w3.org/1999/xlink" version="1.1" width="256" height="256" viewBox="0 0 256 256" xml:space="preserve">

<defs>
</defs>
<g style="stroke: none; stroke-width: 0; stroke-dasharray: none; stroke-linecap: butt; stroke-linejoin: miter; stroke-miterlimit: 10; fill: none; fill-rule: nonzero; opacity: 1;" transform="translate(1.4065934065934016 1.4065934065934016) scale(2.81 2.81)" >
	<path d="M 24.119 57.048 v 25.496 c 0 3.566 2.891 6.457 6.457 6.457 h 40.891 c 3.566 0 6.457 -2.891 6.457 -6.457 V 7.457 C 77.923 3.891 75.033 1 71.467 1 H 30.576 c -3.566 0 -6.457 2.891 -6.457 6.457 V 25.8 V 57.048 z" style="stroke: none; stroke-width: 1; stroke-dasharray: none; stroke-linecap: butt; stroke-linejoin: miter; stroke-miterlimit: 10; fill: rgb(125,141,156); fill-rule: nonzero; opacity: 1;" transform=" matrix(1 0 0 1 0 0) " stroke-linecap="round" />
	<path d="M 24.119 57.048 v 20.508 h 53.804 v -70.1 C 77.923 3.891 75.033 1 71.467 1 H 30.576 c -3.566 0 -6.457 2.891 -6.457 6.457 V 25.8 V 57.048 z" style="stroke: none; stroke-width: 1; stroke-dasharray: none; stroke-linecap: butt; stroke-linejoin: miter; stroke-miterlimit: 10; fill: rgb(135,206,233); fill-rule: nonzero; opacity: 1;" transform=" matrix(1 0 0 1 0 0) " stroke-linecap="round" />
	<path d="M 60.617 25.8 H 15.942 c -2.135 0 -3.866 1.731 -3.866 3.866 v 23.516 c 0 2.135 1.731 3.866 3.866 3.866 h 34.161 l 6.906 5.817 v -5.817 h 3.609 c 2.135 0 3.866 -1.731 3.866 -3.866 V 29.666 C 64.483 27.531 62.752 25.8 60.617 25.8 z" style="stroke: none; stroke-width: 1; stroke-dasharray: none; stroke-linecap: butt; stroke-linejoin: miter; stroke-miterlimit: 10; fill: rgb(253,189,64); fill-rule: nonzero; opacity: 1;" transform=" matrix(1 0 0 1 0 0) " stroke-linecap="round" />
	<path d="M 42.782 48.614 c -0.552 0 -1 -0.447 -1 -1 v -9.416 l -2.69 3.741 c -0.376 0.522 -1.248 0.522 -1.624 0 l -2.69 -3.741 v 9.416 c 0 0.553 -0.448 1 -1 1 s -1 -0.447 -1 -1 V 35.095 c 0 -0.434 0.28 -0.819 0.693 -0.952 c 0.413 -0.133 0.864 0.015 1.119 0.368 l 3.69 5.131 l 3.69 -5.131 c 0.254 -0.352 0.707 -0.5 1.119 -0.368 c 0.413 0.133 0.693 0.518 0.693 0.952 v 12.519 C 43.782 48.167 43.334 48.614 42.782 48.614 z" style="stroke: none; stroke-width: 1; stroke-dasharray: none; stroke-linecap: butt; stroke-linejoin: miter; stroke-miterlimit: 10; fill: rgb(0,0,0); fill-rule: nonzero; opacity: 1;" transform=" matrix(1 0 0 1 0 0) " stroke-linecap="round" />
	<path d="M 25.547 48.614 h -4.085 c -0.552 0 -1 -0.447 -1 -1 s 0.448 -1 1 -1 h 4.085 c 0.647 0 1.174 -0.526 1.174 -1.174 v -1.911 c 0 -0.647 -0.527 -1.174 -1.174 -1.174 h -2.275 c -1.75 0 -3.174 -1.424 -3.174 -3.174 V 37.27 c 0 -1.75 1.424 -3.175 3.174 -3.175 h 2.933 c 0.552 0 1 0.448 1 1 s -0.448 1 -1 1 h -2.933 c -0.647 0 -1.174 0.527 -1.174 1.175 v 1.911 c 0 0.647 0.527 1.174 1.174 1.174 h 2.275 c 1.75 0 3.174 1.424 3.174 3.174 v 1.911 C 28.722 47.19 27.298 48.614 25.547 48.614 z" style="stroke: none; stroke-width: 1; stroke-dasharray: none; stroke-linecap: butt; stroke-linejoin: miter; stroke-miterlimit: 10; fill: rgb(0,0,0); fill-rule: nonzero; opacity: 1;" transform=" matrix(1 0 0 1 0 0) " stroke-linecap="round" />
	<path d="M 53.287 48.614 h -4.085 c -0.553 0 -1 -0.447 -1 -1 s 0.447 -1 1 -1 h 4.085 c 0.647 0 1.174 -0.526 1.174 -1.174 v -1.911 c 0 -0.647 -0.526 -1.174 -1.174 -1.174 h -2.274 c -1.751 0 -3.175 -1.424 -3.175 -3.174 V 37.27 c 0 -1.75 1.424 -3.175 3.175 -3.175 h 2.932 c 0.553 0 1 0.448 1 1 s -0.447 1 -1 1 h -2.932 c -0.647 0 -1.175 0.527 -1.175 1.175 v 1.911 c 0 0.647 0.527 1.174 1.175 1.174 h 2.274 c 1.75 0 3.174 1.424 3.174 3.174 v 1.911 C 56.461 47.19 55.037 48.614 53.287 48.614 z" style="stroke: none; stroke-width: 1; stroke-dasharray: none; stroke-linecap: butt; stroke-linejoin: miter; stroke-miterlimit: 10; fill: rgb(0,0,0); fill-rule: nonzero; opacity: 1;" transform=" matrix(1 0 0 1 0 0) " stroke-linecap="round" />
	<path d="M 57.009 63.865 c -0.231 0 -0.46 -0.08 -0.645 -0.235 l -6.627 -5.582 H 15.942 c -2.683 0 -4.866 -2.183 -4.866 -4.865 V 29.666 c 0 -2.683 2.183 -4.866 4.866 -4.866 h 44.675 c 2.684 0 4.866 2.183 4.866 4.866 v 23.517 c 0 2.683 -2.183 4.865 -4.866 4.865 h -2.608 v 4.817 c 0 0.389 -0.226 0.742 -0.578 0.906 C 57.296 63.835 57.152 63.865 57.009 63.865 z M 15.942 26.8 c -1.58 0 -2.866 1.286 -2.866 2.866 v 23.517 c 0 1.58 1.286 2.865 2.866 2.865 h 34.16 c 0.235 0 0.464 0.083 0.645 0.235 l 5.262 4.433 v -3.668 c 0 -0.553 0.447 -1 1 -1 h 3.608 c 1.58 0 2.866 -1.285 2.866 -2.865 V 29.666 c 0 -1.58 -1.286 -2.866 -2.866 -2.866 H 15.942 z" style="stroke: none; stroke-width: 1; stroke-dasharray: none; stroke-linecap: butt; stroke-linejoin: miter; stroke-miterlimit: 10; fill: rgb(0,0,0); fill-rule: nonzero; opacity: 1;" transform=" matrix(1 0 0 1 0 0) " stroke-linecap="round" />
	<path d="M 71.467 90 H 30.576 c -4.111 0 -7.457 -3.345 -7.457 -7.456 V 57.048 c 0 -0.553 0.448 -1 1 -1 s 1 0.447 1 1 v 25.496 c 0 3.009 2.448 5.456 5.457 5.456 h 40.891 c 3.009 0 5.457 -2.447 5.457 -5.456 V 7.457 C 76.924 4.448 74.476 2 71.467 2 H 30.576 c -3.009 0 -5.457 2.448 -5.457 5.457 V 25.8 c 0 0.552 -0.448 1 -1 1 s -1 -0.448 -1 -1 V 7.457 C 23.119 3.345 26.464 0 30.576 0 h 40.891 c 4.112 0 7.457 3.345 7.457 7.457 v 75.087 C 78.924 86.655 75.579 90 71.467 90 z" style="stroke: none; stroke-width: 1; stroke-dasharray: none; stroke-linecap: butt; stroke-linejoin: miter; stroke-miterlimit: 10; fill: rgb(0,0,0); fill-rule: nonzero; opacity: 1;" transform=" matrix(1 0 0 1 0 0) " stroke-linecap="round" />
	<path d="M 60.557 7.641 H 41.485 c -3.336 0 -6.04 -2.704 -6.04 -6.04 V 1 h 31.152 v 0.601 C 66.597 4.937 63.893 7.641 60.557 7.641 z" style="stroke: none; stroke-width: 1; stroke-dasharray: none; stroke-linecap: butt; stroke-linejoin: miter; stroke-miterlimit: 10; fill: rgb(125,141,156); fill-rule: nonzero; opacity: 1;" transform=" matrix(1 0 0 1 0 0) " stroke-linecap="round" />
	<path d="M 60.558 8.642 H 41.485 c -3.882 0 -7.04 -3.158 -7.04 -7.041 V 1 c 0 -0.552 0.448 -1 1 -1 h 31.152 c 0.553 0 1 0.448 1 1 v 0.601 C 67.598 5.483 64.439 8.642 60.558 8.642 z M 36.461 2 c 0.204 2.594 2.379 4.642 5.024 4.642 h 19.072 c 2.645 0 4.82 -2.048 5.024 -4.642 H 36.461 z" style="stroke: none; stroke-width: 1; stroke-dasharray: none; stroke-linecap: butt; stroke-linejoin: miter; stroke-miterlimit: 10; fill: rgb(0,0,0); fill-rule: nonzero; opacity: 1;" transform=" matrix(1 0 0 1 0 0) " stroke-linecap="round" />
	<path d="M 77.924 78.556 H 24.119 c -0.552 0 -1 -0.447 -1 -1 s 0.448 -1 1 -1 h 53.805 c 0.553 0 1 0.447 1 1 S 78.477 78.556 77.924 78.556 z" style="stroke: none; stroke-width: 1; stroke-dasharray: none; stroke-linecap: butt; stroke-linejoin: miter; stroke-miterlimit: 10; fill: rgb(0,0,0); fill-rule: nonzero; opacity: 1;" transform=" matrix(1 0 0 1 0 0) " stroke-linecap="round" />
	<path d="M 56.192 84.307 H 45.85 c -0.552 0 -1 -0.447 -1 -1 s 0.448 -1 1 -1 h 10.342 c 0.553 0 1 0.447 1 1 S 56.745 84.307 56.192 84.307 z" style="stroke: none; stroke-width: 1; stroke-dasharray: none; stroke-linecap: butt; stroke-linejoin: miter; stroke-miterlimit: 10; fill: rgb(0,0,0); fill-rule: nonzero; opacity: 1;" transform=" matrix(1 0 0 1 0 0) " stroke-linecap="round" />
</g>
</svg>