<?xml version="1.0" encoding="iso-8859-1"?>
<!-- Generator: Adobe Illustrator 19.0.0, SVG Export Plug-In . SVG Version: 6.00 Build 0)  -->
<svg version="1.1" id="Layer_1" xmlns="http://www.w3.org/2000/svg" xmlns:xlink="http://www.w3.org/1999/xlink" x="0px" y="0px"
	 viewBox="0 0 490 490" style="enable-background:new 0 0 490 490;" xml:space="preserve">
<g>
	<g>
		<g id="XMLID_36_">
			<g>
				<polygon style="fill:#AFB6BB;" points="480,335 480,370 10,370 10,335 25,335 465,335 				"/>
				<rect x="200" y="10" style="fill:#AFB6BB;" width="90" height="35"/>
				<polygon style="fill:#FFFFFF;" points="465,45 465,335 25,335 25,45 200,45 290,45 				"/>
			</g>
			<path style="fill:#231F20;" d="M480,325h-5V45c0-5.523-4.477-10-10-10H300V10c0-5.523-4.477-10-10-10h-90
				c-5.523,0-10,4.477-10,10v25H25c-5.523,0-10,4.477-10,10v280h-5c-5.523,0-10,4.477-10,10v35c0,5.523,4.477,10,10,10h152.338
				l-50.913,84.855l17.149,10.29L185.662,380H235v110h20V380h49.338l57.087,95.145l17.149-10.29L327.662,380H480
				c5.523,0,10-4.477,10-10v-35C490,329.477,485.523,325,480,325z M210,20h70v15h-70V20z M35,55h420v270H35V55z M470,360H20v-15h450
				V360z"/>
		</g>
	</g>
	<g id="XMLID_35_">
		<g>
			<path style="fill:#AFB6BB;" d="M260,190h-90v-90C219.7,100,260,140.3,260,190z"/>
			<path style="fill:#43B05C;" d="M260,190c0,49.7-40.3,90-90,90s-90-40.3-90-90s40.3-90,90-90v90H260z"/>
		</g>
		<path style="fill:#231F20;" d="M170,90c-55.14,0-100,44.86-100,100s44.86,100,100,100s100-44.86,100-100S225.14,90,170,90z
			 M249.353,180H180v-69.353C216.128,115.176,244.824,143.872,249.353,180z M170,270c-44.112,0-80-35.888-80-80
			c0-40.724,30.593-74.413,70-79.353V190c0,5.523,4.477,10,10,10h79.353C244.413,239.407,210.724,270,170,270z"/>
	</g>
	<g>
		<rect x="345" y="130" style="fill:#231F20;" width="70" height="20"/>
	</g>
	<g>
		<rect x="345" y="160" style="fill:#231F20;" width="70" height="20"/>
	</g>
	<g>
		<rect x="345" y="190" style="fill:#231F20;" width="70" height="20"/>
	</g>
	<g>
		<rect x="345" y="100" style="fill:#231F20;" width="45" height="20"/>
	</g>
	<g>
		<path style="fill:#231F20;" d="M272.071,132.071l-14.143-14.143l15-15c1.875-1.875,4.419-2.929,7.071-2.929h45v20h-40.858
			L272.071,132.071z"/>
	</g>
	<g>
		<rect x="310" y="235" style="fill:#231F20;" width="115" height="20"/>
	</g>
	<g>
		<rect x="280" y="270" style="fill:#231F20;" width="145" height="20"/>
	</g>
</g>
<g>
</g>
<g>
</g>
<g>
</g>
<g>
</g>
<g>
</g>
<g>
</g>
<g>
</g>
<g>
</g>
<g>
</g>
<g>
</g>
<g>
</g>
<g>
</g>
<g>
</g>
<g>
</g>
<g>
</g>
</svg>
