<svg id="Filled" height="512" viewBox="0 0 512 512" width="512" xmlns="http://www.w3.org/2000/svg"><path d="m488 456h-464v-320h464v240z" fill="#e9eef2"/><path d="m24 88h464v64h-464z" fill="#eb423f"/><path d="m152 280h48v48h-48z" fill="#2d85cc"/><path d="m72 280h48v48h-48z" fill="#2d85cc"/><path d="m232 280h48v48h-48z" fill="#2d85cc"/><path d="m312 280h48v48h-48z" fill="#2d85cc"/><path d="m392 280h48v48h-48z" fill="#2d85cc"/><path d="m232 200h48v48h-48z" fill="#eb423f"/><path d="m312 200h48v48h-48z" fill="#eb423f"/><g fill="#2d85cc"><path d="m392 200h48v48h-48z"/><path d="m152 360h48v48h-48z"/><path d="m72 360h48v48h-48z"/><path d="m232 360h48v48h-48z"/><path d="m312 360h48v48h-48z"/><path d="m392 360h48v48h-48z"/></g><rect fill="#d13330" height="64" rx="16" width="32" x="80" y="56"/><rect fill="#d13330" height="64" rx="16" width="32" x="160" y="56"/><rect fill="#d13330" height="64" rx="16" width="32" x="240" y="56"/><rect fill="#d13330" height="64" rx="16" width="32" x="320" y="56"/><rect fill="#d13330" height="64" rx="16" width="32" x="400" y="56"/><path d="m152 200h48v48h-48z" fill="#eb423f"/><path d="m488 80h-48v-8a24 24 0 0 0 -48 0v8h-32v-8a24 24 0 0 0 -48 0v8h-32v-8a24 24 0 0 0 -48 0v8h-32v-8a24 24 0 0 0 -48 0v8h-32v-8a24 24 0 0 0 -48 0v8h-48a8 8 0 0 0 -8 8v368a8 8 0 0 0 8 8h464a8 8 0 0 0 8-8v-368a8 8 0 0 0 -8-8zm-80-8a8 8 0 0 1 16 0v32a8 8 0 0 1 -16 0zm-80 0a8 8 0 0 1 16 0v32a8 8 0 0 1 -16 0zm-80 0a8 8 0 0 1 16 0v32a8 8 0 0 1 -16 0zm-80 0a8 8 0 0 1 16 0v32a8 8 0 0 1 -16 0zm-80 0a8 8 0 0 1 16 0v32a8 8 0 0 1 -16 0zm-56 24h40v8a24 24 0 0 0 48 0v-8h32v8a24 24 0 0 0 48 0v-8h32v8a24 24 0 0 0 48 0v-8h32v8a24 24 0 0 0 48 0v-8h32v8a24 24 0 0 0 48 0v-8h40v48h-448zm0 352v-288h448v288z"/><path d="m200 272h-48a8 8 0 0 0 -8 8v48a8 8 0 0 0 8 8h48a8 8 0 0 0 8-8v-48a8 8 0 0 0 -8-8zm-8 48h-32v-32h32z"/><path d="m120 272h-48a8 8 0 0 0 -8 8v48a8 8 0 0 0 8 8h48a8 8 0 0 0 8-8v-48a8 8 0 0 0 -8-8zm-8 48h-32v-32h32z"/><path d="m280 272h-48a8 8 0 0 0 -8 8v48a8 8 0 0 0 8 8h48a8 8 0 0 0 8-8v-48a8 8 0 0 0 -8-8zm-8 48h-32v-32h32z"/><path d="m360 272h-48a8 8 0 0 0 -8 8v48a8 8 0 0 0 8 8h48a8 8 0 0 0 8-8v-48a8 8 0 0 0 -8-8zm-8 48h-32v-32h32z"/><path d="m440 272h-48a8 8 0 0 0 -8 8v48a8 8 0 0 0 8 8h48a8 8 0 0 0 8-8v-48a8 8 0 0 0 -8-8zm-8 48h-32v-32h32z"/><path d="m280 192h-48a8 8 0 0 0 -8 8v48a8 8 0 0 0 8 8h48a8 8 0 0 0 8-8v-48a8 8 0 0 0 -8-8zm-19.314 16-20.686 20.686v-20.686zm-9.372 32 20.686-20.686v20.686z"/><path d="m360 192h-48a8 8 0 0 0 -8 8v48a8 8 0 0 0 8 8h48a8 8 0 0 0 8-8v-48a8 8 0 0 0 -8-8zm-19.314 16-20.686 20.686v-20.686zm-9.372 32 20.686-20.686v20.686z"/><path d="m440 192h-48a8 8 0 0 0 -8 8v48a8 8 0 0 0 8 8h48a8 8 0 0 0 8-8v-48a8 8 0 0 0 -8-8zm-8 48h-32v-32h32z"/><path d="m200 352h-48a8 8 0 0 0 -8 8v48a8 8 0 0 0 8 8h48a8 8 0 0 0 8-8v-48a8 8 0 0 0 -8-8zm-8 48h-32v-32h32z"/><path d="m120 352h-48a8 8 0 0 0 -8 8v48a8 8 0 0 0 8 8h48a8 8 0 0 0 8-8v-48a8 8 0 0 0 -8-8zm-8 48h-32v-32h32z"/><path d="m280 352h-48a8 8 0 0 0 -8 8v48a8 8 0 0 0 8 8h48a8 8 0 0 0 8-8v-48a8 8 0 0 0 -8-8zm-8 48h-32v-32h32z"/><path d="m360 352h-48a8 8 0 0 0 -8 8v48a8 8 0 0 0 8 8h48a8 8 0 0 0 8-8v-48a8 8 0 0 0 -8-8zm-8 48h-32v-32h32z"/><path d="m440 352h-48a8 8 0 0 0 -8 8v48a8 8 0 0 0 8 8h48a8 8 0 0 0 8-8v-48a8 8 0 0 0 -8-8zm-8 48h-32v-32h32z"/><path d="m200 192h-48a8 8 0 0 0 -8 8v48a8 8 0 0 0 8 8h48a8 8 0 0 0 8-8v-48a8 8 0 0 0 -8-8zm-19.314 16-20.686 20.686v-20.686zm-9.372 32 20.686-20.686v20.686z"/></svg>