<?xml version="1.0" encoding="iso-8859-1"?>
<!-- Generator: Adobe Illustrator 19.0.0, SVG Export Plug-In . SVG Version: 6.00 Build 0)  -->
<svg version="1.1" id="Layer_1" xmlns="http://www.w3.org/2000/svg" xmlns:xlink="http://www.w3.org/1999/xlink" x="0px" y="0px"
	 viewBox="0 0 512 512" style="enable-background:new 0 0 512 512;" xml:space="preserve">
<path style="fill:#458FDE;" d="M75.673,188.377C75.673,88.785,156.408,8.05,256,8.05s180.327,80.735,180.327,180.327
	S256,503.95,256,503.95S75.673,287.969,75.673,188.377z"/>
<path style="fill:#4F5AA8;" d="M115.388,188.377c0-93.064,69.427-169.653,159.933-179.296C268.972,8.406,262.528,8.05,256,8.05
	c-99.592,0-180.327,80.735-180.327,180.327S256,503.95,256,503.95s7.45-8.923,19.321-23.977
	C228.787,420.961,115.388,267.727,115.388,188.377z"/>
<circle style="fill:#AFF078;" cx="256" cy="188.377" r="139.539"/>
<circle style="fill:#5AC779;" cx="256" cy="188.377" r="100.897"/>
<rect x="161.543" y="123.975" style="fill:#FFD652;" width="145.979" height="137.392"/>
<polygon style="fill:#FB9D46;" points="186.122,123.975 161.543,123.975 161.543,261.367 272.166,261.367 "/>
<rect x="307.522" y="123.975" style="fill:#F7EDBC;" width="42.935" height="137.392"/>
<rect x="210.918" y="123.975" style="fill:#FF7452;" width="42.935" height="60.109"/>
<path d="M437.4,281.224h-21.046c16.833-34.58,28.023-67.206,28.023-92.847c0-18.316-2.624-36.425-7.802-53.82
	c-1.268-4.259-5.747-6.682-10.012-5.419c-4.261,1.269-6.687,5.75-5.419,10.012c4.734,15.904,7.134,32.466,7.134,49.227
	c0,85.29-140.794,263.973-172.277,302.857C224.517,452.35,83.723,273.668,83.723,188.377c0-94.994,77.283-172.277,172.277-172.277
	c65.227,0,124.115,36.151,153.686,94.345c2.015,3.965,6.86,5.544,10.824,3.53c3.963-2.015,5.544-6.861,3.53-10.824
	c-15.519-30.541-39.089-56.31-68.164-74.526C325.981,9.9,291.444,0,256,0C157.613,0,76.615,75.82,68.334,172.096
	c-28.133,3.128-50.087,27.042-50.087,55.996v12.88c0,31.072,25.28,56.352,56.352,56.352h29.205
	c16.907,32.145,37.839,65.281,58.534,95.53h-81.3c-31.072,0-56.352,25.28-56.352,56.352v6.44C24.688,486.72,49.968,512,81.04,512
	h172.813c4.341,0,9.184-3.068,12.328-7.737c10.717-13.077,40.306-49.843,72.37-95.402c0.383,0.056,98.849,0.094,98.849,0.094
	c31.072,0,56.352-25.28,56.352-56.352v-15.027C493.753,306.504,468.472,281.224,437.4,281.224z M74.6,281.224
	c-22.195,0-40.252-18.056-40.252-40.252v-12.88c0-19.814,14.396-36.32,33.276-39.634c0.024,25.628,11.206,58.222,28.022,92.766H74.6
	z M40.788,455.648v-6.44c0-22.195,18.056-40.252,40.252-40.252h92.476c26.737,37.984,51.744,69.845,65.512,86.943H81.04
	C58.845,495.899,40.788,477.843,40.788,455.648z M477.652,352.604c0,22.195-18.056,40.252-40.252,40.252h-87.74
	c20.696-30.25,41.628-63.385,58.534-95.53H437.4c22.195,0,40.252,18.056,40.252,40.252V352.604z"/>
<path d="M129.479,247.855c-3.907,2.123-5.351,7.011-3.228,10.917c25.884,47.615,75.602,77.194,129.749,77.194
	c81.38,0,147.589-66.209,147.589-147.589S337.38,40.788,256,40.788s-147.589,66.209-147.589,147.589
	c0,13.892,1.93,27.644,5.735,40.872c1.23,4.272,5.692,6.743,9.962,5.512c4.272-1.23,6.74-5.69,5.512-9.962
	c-3.39-11.782-5.108-24.036-5.108-36.422c0-72.503,58.985-131.488,131.488-131.488s131.488,58.985,131.488,131.488
	S328.503,319.866,256,319.866c-48.242,0-92.539-26.357-115.604-68.783C138.273,247.177,133.385,245.73,129.479,247.855z"/>
<path d="M350.457,269.417c4.447,0,8.05-3.603,8.05-8.05V123.975c0-4.447-3.603-8.05-8.05-8.05H161.543
	c-4.447,0-8.05,3.603-8.05,8.05v137.392c0,4.447,3.603,8.05,8.05,8.05H350.457z M342.407,253.317h-26.834V132.025h26.834V253.317z
	 M245.803,132.025v44.008h-26.834v-44.008H245.803z M169.593,132.025h33.275v52.059c0,4.447,3.603,8.05,8.05,8.05h42.935
	c4.447,0,8.05-3.603,8.05-8.05v-52.059h37.568v121.291H169.593V132.025z"/>
<path d="M281.761,206.088h-92.31c-4.447,0-8.05,3.603-8.05,8.05c0,4.447,3.603,8.05,8.05,8.05h92.31c4.447,0,8.05-3.603,8.05-8.05
	C289.811,209.691,286.208,206.088,281.761,206.088z"/>
<path d="M281.761,229.702h-92.31c-4.447,0-8.05,3.603-8.05,8.05c0,4.447,3.603,8.05,8.05,8.05h92.31c4.447,0,8.05-3.603,8.05-8.05
	C289.811,233.306,286.208,229.702,281.761,229.702z"/>
<g>
</g>
<g>
</g>
<g>
</g>
<g>
</g>
<g>
</g>
<g>
</g>
<g>
</g>
<g>
</g>
<g>
</g>
<g>
</g>
<g>
</g>
<g>
</g>
<g>
</g>
<g>
</g>
<g>
</g>
</svg>
